<svg width="16" height="16" viewBox="0 0 16 16" fill="none" xmlns="http://www.w3.org/2000/svg">
<path d="M4.44505 5.09148C4.3738 5.85148 4.3238 7.19648 4.77255 7.76898C4.77255 7.76898 4.5613 6.29148 6.45504 4.43773C7.21754 3.69148 7.39379 2.67648 7.12754 1.91523C6.97629 1.48398 6.70005 1.12773 6.46004 0.878982C6.32004 0.732732 6.42755 0.491482 6.63129 0.500232C7.86379 0.555232 9.86129 0.897731 10.71 3.02773C11.0825 3.96273 11.11 4.92898 10.9325 5.91148C10.82 6.53898 10.42 7.93398 11.3325 8.10523C11.9838 8.22773 12.2988 7.71023 12.44 7.33773C12.4988 7.18273 12.7025 7.14398 12.8125 7.26773C13.9125 8.51898 14.0063 9.99273 13.7788 11.2615C13.3388 13.714 10.855 15.499 8.38754 15.499C5.30505 15.499 2.8513 13.7352 2.21505 10.5427C1.9588 9.25398 2.0888 6.70398 4.0763 4.90398C4.2238 4.76898 4.46505 4.88898 4.44505 5.09148Z" fill="url(#paint0_radial_99_1055)"/>
<path d="M9.51372 9.67764C8.37747 8.21514 8.88622 6.54639 9.16497 5.88139C9.20247 5.79389 9.10247 5.71139 9.02372 5.76514C8.53497 6.09764 7.53372 6.88014 7.06746 7.98139C6.43621 9.47014 6.48121 10.1989 6.85496 11.0889C7.07996 11.6251 6.81871 11.7389 6.68746 11.7589C6.55996 11.7789 6.44246 11.6939 6.34871 11.6051C6.07901 11.3462 5.88682 11.0172 5.79371 10.6551C5.77371 10.5776 5.67246 10.5564 5.62621 10.6201C5.27621 11.1039 5.09496 11.8801 5.08621 12.4289C5.05871 14.1251 6.45996 15.5001 8.15497 15.5001C10.2912 15.5001 11.8475 13.1376 10.62 11.1626C10.2637 10.5876 9.92872 10.2114 9.51372 9.67764Z" fill="url(#paint1_radial_99_1055)"/>
<defs>
<radialGradient id="paint0_radial_99_1055" cx="0" cy="0" r="1" gradientUnits="userSpaceOnUse" gradientTransform="translate(7.77702 15.5378) rotate(-179.751) scale(8.82346 14.4775)">
<stop offset="0.314" stop-color="#FF9800"/>
<stop offset="0.662" stop-color="#FF6D00"/>
<stop offset="0.972" stop-color="#F44336"/>
</radialGradient>
<radialGradient id="paint1_radial_99_1055" cx="0" cy="0" r="1" gradientUnits="userSpaceOnUse" gradientTransform="translate(8.27246 6.75743) rotate(90.5787) scale(9.23205 6.94781)">
<stop offset="0.214" stop-color="#FFF176"/>
<stop offset="0.328" stop-color="#FFF27D"/>
<stop offset="0.487" stop-color="#FFF48F"/>
<stop offset="0.672" stop-color="#FFF7AD"/>
<stop offset="0.793" stop-color="#FFF9C4"/>
<stop offset="0.822" stop-color="#FFF8BD" stop-opacity="0.804"/>
<stop offset="0.863" stop-color="#FFF6AB" stop-opacity="0.529"/>
<stop offset="0.91" stop-color="#FFF38D" stop-opacity="0.209"/>
<stop offset="0.941" stop-color="#FFF176" stop-opacity="0"/>
</radialGradient>
</defs>
</svg>
