<svg width="70" height="70" viewBox="0 0 70 70" fill="none" xmlns="http://www.w3.org/2000/svg">
<path d="M23.334 23.3333L23.334 20.4166C23.334 13.9733 28.5573 8.74998 35.0007 8.74998V8.74998C41.444 8.74998 46.6673 13.9733 46.6673 20.4166L46.6673 23.3333" stroke="#FF2F5A" stroke-width="5.83333" stroke-linecap="round"/>
<path fill-rule="evenodd" clip-rule="evenodd" d="M8.75 32.0834C8.75 26.5836 8.75 23.8338 10.4585 22.1252C12.1671 20.4167 14.9169 20.4167 20.4167 20.4167H49.5833C55.0831 20.4167 57.8329 20.4167 59.5415 22.1252C61.25 23.8338 61.25 26.5836 61.25 32.0834V40.8334C61.25 51.8328 61.25 57.3325 57.8329 60.7496C54.4158 64.1667 48.9161 64.1667 37.9167 64.1667H32.0833C21.0839 64.1667 15.5842 64.1667 12.1671 60.7496C8.75 57.3325 8.75 51.8328 8.75 40.8334V32.0834ZM26.25 32.0833C27.8608 32.0833 29.1667 33.3892 29.1667 35V40.8333C29.1667 42.4442 27.8608 43.75 26.25 43.75C24.6392 43.75 23.3333 42.4442 23.3333 40.8333V35C23.3333 33.3892 24.6392 32.0833 26.25 32.0833ZM43.75 32.0833C45.3608 32.0833 46.6667 33.3892 46.6667 35V40.8333C46.6667 42.4442 45.3608 43.75 43.75 43.75C42.1392 43.75 40.8333 42.4442 40.8333 40.8333V35C40.8333 33.3892 42.1392 32.0833 43.75 32.0833ZM29.4217 53.4067C30.238 52.5817 31.96 51.5397 34.0452 51.2581C36.0372 50.989 38.3743 51.4068 40.6547 53.4799C41.472 54.2229 42.7369 54.1627 43.4799 53.3453C44.2229 52.528 44.1627 51.2631 43.3453 50.5201C40.1257 47.5932 36.5828 46.879 33.5098 47.294C30.53 47.6965 28.002 49.1544 26.5783 50.5933C25.8014 51.3785 25.8081 52.6448 26.5933 53.4217C27.3785 54.1986 28.6448 54.1919 29.4217 53.4067Z" fill="#FF2F5A"/>
</svg>
