<svg width="70" height="70" viewBox="0 0 70 70" fill="none" xmlns="http://www.w3.org/2000/svg">
<path fill-rule="evenodd" clip-rule="evenodd" d="M35 61.25C49.4975 61.25 61.25 49.4975 61.25 35C61.25 20.5025 49.4975 8.75 35 8.75C20.5025 8.75 8.75 20.5025 8.75 35C8.75 49.4975 20.5025 61.25 35 61.25ZM48.9073 28.1172C49.9385 26.8797 49.7713 25.0406 48.5339 24.0094C47.2964 22.9781 45.4573 23.1453 44.426 24.3828L33.932 36.9756C32.9207 38.1891 32.3522 38.861 31.8983 39.2738L31.881 39.2895L31.8623 39.2755C31.3729 38.9054 30.7459 38.2878 29.6289 37.1708L25.3957 32.9376C24.2567 31.7986 22.41 31.7986 21.2709 32.9376C20.1319 34.0766 20.1319 35.9234 21.2709 37.0624L25.5042 41.2956L25.6232 41.4147C26.5755 42.3673 27.4916 43.2838 28.344 43.9283C29.2988 44.6503 30.5492 45.3292 32.1517 45.2566C33.7541 45.1839 34.9379 44.3945 35.8235 43.5891C36.614 42.87 37.4433 41.8744 38.3054 40.8395L38.3055 40.8394L38.4133 40.71L48.9073 28.1172ZM31.6265 39.4908L31.6306 39.4886C31.6278 39.4902 31.6265 39.4908 31.6265 39.4908ZM32.1484 39.4651L32.1527 39.4669C32.1527 39.467 32.1513 39.4664 32.1484 39.4651Z" fill="#44A60F"/>
</svg>
