<svg width="70" height="70" viewBox="0 0 70 70" fill="none" xmlns="http://www.w3.org/2000/svg">
<path fill-rule="evenodd" clip-rule="evenodd" d="M61.25 35C61.25 49.4975 49.4975 61.25 35 61.25C20.5025 61.25 8.75 49.4975 8.75 35C8.75 20.5025 20.5025 8.75 35 8.75C49.4975 8.75 61.25 20.5025 61.25 35ZM21.2709 48.7291C20.1319 47.59 20.1319 45.7433 21.2709 44.6043L30.8752 35L21.2709 25.3957C20.1319 24.2567 20.1319 22.41 21.2709 21.2709C22.41 20.1319 24.2567 20.1319 25.3957 21.2709L35 30.8752L44.6043 21.2709C45.7433 20.1319 47.59 20.1319 48.7291 21.2709C49.8681 22.41 49.8681 24.2567 48.7291 25.3957L39.1248 35L48.7291 44.6043C49.8681 45.7433 49.8681 47.59 48.7291 48.7291C47.59 49.8681 45.7433 49.8681 44.6043 48.7291L35 39.1248L25.3957 48.7291C24.2567 49.8681 22.41 49.8681 21.2709 48.7291Z" fill="#FF2F5A"/>
</svg>
