<svg width="70" height="70" viewBox="0 0 70 70" fill="none" xmlns="http://www.w3.org/2000/svg">
<path fill-rule="evenodd" clip-rule="evenodd" d="M45.5637 7.78331L34.8026 6.09228C25.4092 4.61618 20.7125 3.87813 17.6492 6.49764C14.5859 9.11716 14.5859 13.8715 14.5859 23.3801V32.0832H31.8508L23.9751 22.2386L28.5301 18.5945L40.1968 33.1779L41.6544 34.9999L40.1968 36.8219L28.5301 51.4053L23.9751 47.7612L31.8508 37.9166H14.5859V46.6173C14.5859 56.1259 14.5859 60.8803 17.6492 63.4998C20.7125 66.1193 25.4092 65.3812 34.8026 63.9051L45.5637 62.2141C50.2675 61.4749 52.6194 61.1054 54.0193 59.4683C55.4193 57.8312 55.4193 55.4504 55.4193 50.6889V19.3085C55.4193 14.547 55.4193 12.1663 54.0193 10.5292C52.6194 8.89207 50.2675 8.52248 45.5637 7.78331Z" fill="#FF2F5A"/>
</svg>
