<svg width="70" height="70" viewBox="0 0 70 70" fill="none" xmlns="http://www.w3.org/2000/svg">
<path fill-rule="evenodd" clip-rule="evenodd" d="M29.3288 12.3406L23.3329 23.3331L36.4579 36.4581L33.5412 43.7498L43.7495 34.9998L32.0829 23.3331L36.0239 18.4136C36.2352 18.2488 36.4123 18.0252 36.5308 17.7429C40.4386 8.43876 52.8835 6.71543 59.1725 14.6075L60.3049 16.0286C65.7178 22.8212 64.7933 32.6776 58.2116 38.3451L36.6566 56.9064L36.6565 56.9064C35.9875 57.4825 35.653 57.7706 35.2662 57.8425C35.0899 57.8753 34.9091 57.8753 34.7329 57.8425C34.3461 57.7706 34.0116 57.4825 33.3425 56.9064L11.7875 38.3451C5.20584 32.6776 4.2813 22.8212 9.69419 16.0286L10.8266 14.6075C15.5905 8.62925 23.8868 8.16839 29.3288 12.3406Z" fill="#FF2F5A"/>
</svg>
