<svg width="60" height="40" viewBox="0 0 60 40" fill="none" xmlns="http://www.w3.org/2000/svg">
<rect width="60" height="40" rx="7" fill="#FF8800"/>
<path d="M29.708 20.8869C32.9823 20.8869 35.6515 18.2177 35.6515 14.9434C35.6515 11.6692 32.9823 9 29.708 9C26.3982 9 23.729 11.6692 23.729 14.9434C23.729 18.2177 26.3982 20.8869 29.708 20.8869ZM29.708 12.4878C31.0604 12.4878 32.1637 13.591 32.1637 14.9434C32.1637 16.2958 31.0604 17.3991 29.708 17.3991C28.3556 17.3991 27.2524 16.2958 27.2524 14.9434C27.2168 13.591 28.32 12.4878 29.708 12.4878Z" fill="white"/>
<path d="M32.0925 25.7629C33.3025 25.4782 34.477 25.0155 35.5448 24.3393C36.3632 23.841 36.6123 22.7378 36.0785 21.9192C35.5804 21.1007 34.477 20.8515 33.6584 21.3854C31.2384 22.9157 28.0709 22.9157 25.6508 21.3854C24.8322 20.8871 23.7645 21.1007 23.2307 21.9192C22.768 22.7378 23.0171 23.8055 23.8357 24.3037C24.9034 24.9799 26.0779 25.4426 27.2879 25.7274L23.9781 29.0372C23.3019 29.7134 23.3019 30.8167 23.9781 31.4929C24.334 31.8486 24.761 31.9911 25.2237 31.9911C25.6864 31.9911 26.1134 31.8131 26.4693 31.4929L29.7436 28.2186L33.0178 31.4929C33.694 32.1691 34.7973 32.1691 35.4735 31.4929C36.1496 30.8167 36.1496 29.7134 35.4735 29.0372L32.0925 25.7629Z" fill="white"/>
</svg>
