<svg width="48" height="54" viewBox="0 0 48 54" fill="none" xmlns="http://www.w3.org/2000/svg">
<path d="M13.0961 27.6475C13.0961 26.2415 12.1193 25.4016 10.397 25.4016C9.69395 25.4016 9.2185 25.4701 8.96875 25.5367V30.0525C9.26475 30.1191 9.62735 30.1432 10.125 30.1432C11.962 30.1432 13.0961 29.2126 13.0961 27.6475ZM23.7632 25.446C22.9918 25.446 22.4923 25.5145 22.1963 25.5829V35.5877C22.4923 35.6562 22.9677 35.6562 23.3988 35.6562C26.5289 35.6784 28.5714 33.9542 28.5714 30.3023C28.5954 27.1258 26.7343 25.446 23.7632 25.446Z" fill="#FF2F5A"/>
<path d="M44.1983 19.5686H42.944V13.5173C42.943 13.4788 42.9393 13.4405 42.9329 13.4026C42.9349 13.1592 42.8489 12.9233 42.6906 12.7384L32.621 1.23881L32.6136 1.23141C32.4857 1.09264 32.3227 0.991012 32.1418 0.93726L32.0864 0.91876C32.0095 0.899596 31.9306 0.889659 31.8514 0.88916H7.10395C5.9736 0.88916 5.056 1.80861 5.056 2.93711V19.5686H3.8017C2.1848 19.5686 0.875 20.8784 0.875 22.4953V37.7171C0.875 39.3322 2.18665 40.6438 3.8017 40.6438H5.056V51.0649C5.056 52.1934 5.9736 53.1128 7.10395 53.1128H40.896C42.0245 53.1128 42.944 52.1934 42.944 51.0649V40.6438H44.1983C45.8152 40.6438 47.125 39.3322 47.125 37.7171V22.4953C47.125 20.8784 45.8134 19.5686 44.1983 19.5686ZM7.10395 2.93711H30.8265V13.4155C30.8265 13.9816 31.2853 14.4386 31.8514 14.4386H40.8979V19.5686H7.10395V2.93711ZM32.2455 30.1876C32.2455 33.1143 31.1799 35.1345 29.7017 36.3814C28.0922 37.719 25.6428 38.3554 22.6476 38.3554C20.855 38.3554 19.5859 38.2407 18.7219 38.1297V23.1095C19.9929 22.906 21.6486 22.7932 23.3969 22.7932C26.2995 22.7932 28.1829 23.3149 29.6573 24.4267C31.2465 25.6052 32.2455 27.4885 32.2455 30.1876ZM5.53885 38.1981V23.1095C6.60445 22.9282 8.10295 22.7932 10.212 22.7932C12.345 22.7932 13.8657 23.202 14.885 24.0179C15.86 24.7893 16.5168 26.0603 16.5168 27.5569C16.5168 29.0554 16.0191 30.3245 15.1107 31.1866C13.9304 32.2985 12.184 32.798 10.1417 32.798C9.6884 32.798 9.27955 32.7758 8.9632 32.7295V38.1981H5.53885ZM40.896 50.5099H7.10395V40.6438H40.896V50.5099ZM43.8634 25.7421H37.986V29.2367H43.4768V32.0506H37.986V38.1981H34.5173V22.906H43.8634V25.7421Z" fill="#FF2F5A"/>
</svg>
