<svg width="60" height="40" viewBox="0 0 60 40" fill="none" xmlns="http://www.w3.org/2000/svg">
<rect width="60" height="40" rx="7" fill="#33AADE"/>
<path fill-rule="evenodd" clip-rule="evenodd" d="M19.2498 18.8127C24.1485 16.5905 27.4097 15.1139 29.0473 14.3976C33.7081 12.3655 34.6879 12.0146 35.3177 12C35.4577 12 35.7656 12.0292 35.9755 12.2047C36.1435 12.3509 36.1855 12.5409 36.2135 12.6871C36.2415 12.8333 36.2695 13.1403 36.2415 13.3742C35.9895 16.1519 34.8978 22.8915 34.3379 25.9908C34.1 27.3065 33.6381 27.7451 33.1902 27.789C32.2105 27.8767 31.4687 27.1165 30.5309 26.4732C29.0473 25.4645 28.2215 24.8359 26.7799 23.8417C25.1143 22.7014 26.192 22.0728 27.1438 21.0494C27.3957 20.7863 31.6926 16.6928 31.7766 16.3273C31.7906 16.2835 31.7906 16.1081 31.6926 16.0203C31.5946 15.9326 31.4547 15.9619 31.3427 15.9911C31.1887 16.0203 28.8373 17.6577 24.2605 20.8886C23.5887 21.371 22.9868 21.605 22.441 21.5903C21.8391 21.5757 20.6914 21.2395 19.8236 20.9471C18.7739 20.5962 17.9341 20.4062 18.0041 19.7922C18.0461 19.4705 18.466 19.1489 19.2498 18.8127Z" fill="white"/>
</svg>
