<svg width="60" height="40" viewBox="0 0 60 40" fill="none" xmlns="http://www.w3.org/2000/svg">
<rect width="60" height="40" rx="7" fill="#26D044"/>
<path fill-rule="evenodd" clip-rule="evenodd" d="M37.0351 12.068C35.0506 10.0906 32.4114 9.00121 29.5996 9C23.8059 9 19.0904 13.6926 19.0881 19.4604C19.0874 21.3041 19.5713 23.1038 20.4912 24.6903L19 30.1111L24.5723 28.6564C26.1076 29.4898 27.8361 29.9291 29.5954 29.9297H29.5997C35.3928 29.9297 40.1087 25.2365 40.1111 19.4686C40.1121 16.6735 39.0197 14.0453 37.0351 12.068ZM29.5997 28.163H29.5962C28.0285 28.1624 26.4909 27.7432 25.1495 26.951L24.8304 26.7627L21.5238 27.6259L22.4064 24.4173L22.1986 24.0882C21.3241 22.704 20.8622 21.104 20.8629 19.4609C20.8648 14.667 24.784 10.7668 29.6032 10.7668C31.9367 10.7676 34.1304 11.6732 35.7799 13.3168C37.4294 14.9603 38.3371 17.1448 38.3362 19.4681C38.3343 24.2624 34.4151 28.163 29.5997 28.163ZM34.3919 21.6509C34.1293 21.5201 32.8381 20.8878 32.5973 20.8005C32.3566 20.7134 32.1814 20.6698 32.0064 20.9314C31.8313 21.1931 31.3279 21.7818 31.1747 21.9564C31.0214 22.1307 30.8682 22.1526 30.6057 22.0217C30.3429 21.8909 29.4967 21.6149 28.4935 20.7243C27.7128 20.0312 27.1856 19.1753 27.0324 18.9135C26.8792 18.6518 27.016 18.5104 27.1476 18.3801C27.2657 18.2629 27.4103 18.0747 27.5416 17.9221C27.673 17.7695 27.7167 17.6604 27.8043 17.486C27.8919 17.3116 27.8481 17.1589 27.7823 17.0281C27.7167 16.8972 27.1914 15.6106 26.9726 15.0872C26.7594 14.5776 26.5428 14.6466 26.3816 14.6385C26.2286 14.631 26.0534 14.6292 25.8782 14.6292C25.7031 14.6292 25.4186 14.6947 25.1778 14.9564C24.9371 15.218 24.2586 15.8504 24.2586 17.137C24.2586 18.4236 25.1997 19.6665 25.3311 19.841C25.4623 20.0154 27.1831 22.6556 29.8177 23.7879C30.4443 24.0572 30.9335 24.218 31.315 24.3385C31.9443 24.5375 32.5168 24.5093 32.9693 24.4421C33.4739 24.367 34.5232 23.8097 34.742 23.1992C34.9609 22.5885 34.9609 22.0652 34.8953 21.9562C34.8296 21.8473 34.6546 21.7818 34.3919 21.6509Z" fill="white"/>
</svg>
