<svg width="60" height="40" viewBox="0 0 60 40" fill="none" xmlns="http://www.w3.org/2000/svg">
<rect width="60" height="40" rx="7" fill="#7D3DAF"/>
<g clip-path="url(#clip0_22_592)">
<path d="M37.1992 11.0556C36.6759 10.5762 34.5559 9.0351 29.835 9.01487C29.835 9.01487 24.2643 8.68149 21.5506 11.1717C20.0412 12.6812 19.5125 14.8917 19.4518 17.6335C19.3911 20.3753 19.3234 25.5141 24.2766 26.9109H24.281L24.2766 29.0388C24.2766 29.0388 24.244 29.9008 24.8105 30.0741C25.4949 30.2887 25.8995 29.6325 26.5548 28.927C26.9137 28.5391 27.4081 27.9709 27.7837 27.5372C28.3115 27.5891 28.9237 27.6182 29.5438 27.6182C31.1509 27.6182 32.7122 27.4202 34.2041 27.0473L34.0722 27.0754C34.7565 26.8529 38.6286 26.3577 39.2549 21.2197C39.9094 15.9156 38.9435 12.5695 37.1992 11.0556ZM37.7728 20.8327C37.2388 25.1209 34.1021 25.3936 33.525 25.5783C32.2654 25.8985 30.8193 26.0814 29.3301 26.0814C28.9026 26.0814 28.4786 26.0665 28.059 26.0366L28.1153 26.0401C28.1153 26.0401 25.9708 28.6253 25.3031 29.2974C25.085 29.5155 24.8448 29.4979 24.8492 29.0625C24.8492 28.7784 24.8659 25.5282 24.8659 25.5282C20.6728 24.3653 20.9155 19.9883 20.9648 17.7021C21.014 15.4159 21.4433 13.537 22.7214 12.2757C25.019 10.1936 29.7488 10.5023 29.7488 10.5023C33.7449 10.519 35.6581 11.7233 36.1032 12.127C37.5757 13.3893 38.326 16.4082 37.7728 20.8318V20.8327ZM32.0455 17.5007V17.513C32.0455 17.6608 31.9259 17.7804 31.7781 17.7804C31.6347 17.7804 31.5177 17.6678 31.5115 17.5262V17.5253C31.5151 17.4883 31.5177 17.4444 31.5177 17.4013C31.5177 16.6967 30.9468 16.1258 30.2422 16.1258C30.2159 16.1258 30.1895 16.1267 30.164 16.1284H30.1675C30.0259 16.1205 29.9141 16.0044 29.9141 15.8619C29.9141 15.7141 30.0338 15.5945 30.1815 15.5945H30.1965H30.1956C30.2132 15.5936 30.2352 15.5936 30.2563 15.5936C31.2468 15.5936 32.049 16.3958 32.049 17.3863C32.049 17.4268 32.0472 17.4672 32.0446 17.5068V17.5015L32.0455 17.5007ZM32.882 17.9677C32.9234 16.219 31.8309 14.8503 29.7567 14.6973C29.6168 14.6876 29.5078 14.5715 29.5078 14.4308C29.5078 14.283 29.6274 14.1633 29.7752 14.1633C29.7813 14.1633 29.7884 14.1633 29.7945 14.1642H29.7936H29.8086C31.8027 14.1642 33.4203 15.781 33.4203 17.776C33.4203 17.8472 33.4186 17.9185 33.4142 17.9889L33.4151 17.9792C33.4115 18.1243 33.2937 18.2395 33.1485 18.2395C33.0008 18.2395 32.8811 18.1199 32.8811 17.9721C32.8811 17.9695 32.8811 17.9677 32.8811 17.9651L32.882 17.9677ZM34.8172 18.521V18.5228C34.8172 18.6706 34.6976 18.7902 34.5498 18.7902C34.402 18.7902 34.2841 18.6714 34.2833 18.5254C34.2621 15.1635 32.02 13.333 29.3028 13.3136C29.155 13.3136 29.0363 13.194 29.0363 13.0471C29.0363 12.9002 29.1559 12.7806 29.3028 12.7806C32.3454 12.8017 34.7908 14.9014 34.8154 18.5201L34.8172 18.521ZM34.3554 22.5656V22.5735C33.9103 23.3572 33.0773 24.2228 32.2197 23.9466L32.2117 23.9343C30.6003 23.3326 29.2069 22.5462 27.9622 21.5777L27.9983 21.6041C27.3447 21.0834 26.7703 20.509 26.2663 19.8774L26.2496 19.8554C25.8019 19.2942 25.3823 18.6662 25.0164 18.0029L24.9812 17.9334C24.5792 17.2772 24.2159 16.519 23.9318 15.7229L23.9054 15.6367C23.6292 14.7791 24.4903 13.9461 25.2785 13.501H25.2864C25.4008 13.428 25.5397 13.384 25.6893 13.384C25.9241 13.384 26.1335 13.4922 26.2716 13.6602L26.2725 13.662C26.2725 13.662 26.7835 14.2715 27.0026 14.5733C27.2084 14.8539 27.4855 15.3033 27.6289 15.554C27.7115 15.6833 27.7599 15.8417 27.7599 16.0114C27.7599 16.2648 27.6509 16.4926 27.4767 16.6501L27.4758 16.6509L26.9815 17.0468C26.8451 17.1787 26.7607 17.3634 26.7607 17.5675C26.7607 17.5877 26.7615 17.6071 26.7633 17.6264V17.6238C27.2726 19.2977 28.5648 20.5899 30.2027 21.0904L30.2396 21.1001C30.2563 21.1019 30.2765 21.1027 30.2959 21.1027C30.5 21.1027 30.6847 21.0183 30.8166 20.8828L31.2125 20.3885C31.3708 20.2134 31.5986 20.1044 31.852 20.1044C32.0217 20.1044 32.1792 20.1536 32.3129 20.2381L32.3094 20.2363C33.0245 20.6436 33.6429 21.0913 34.2067 21.5989L34.1971 21.5901C34.3659 21.7255 34.4724 21.9322 34.4724 22.1636C34.4724 22.3122 34.4284 22.4503 34.3519 22.5664L34.3536 22.5638L34.3554 22.5656Z" fill="white"/>
</g>
<defs>
<clipPath id="clip0_22_592">
<rect width="21.1111" height="21.1111" fill="white" transform="translate(19 9)"/>
</clipPath>
</defs>
</svg>
