<svg width="16" height="18" viewBox="0 0 16 18" fill="none" xmlns="http://www.w3.org/2000/svg">
<path d="M9.09999 16.5426C9.09999 16.9194 9.29739 17.2693 9.62168 17.4673C9.94598 17.6654 10.3509 17.6834 10.6919 17.5149L15.0919 15.3408C15.4646 15.1566 15.7 14.7802 15.7 14.3684V8.10255C15.7 7.72579 15.5026 7.3759 15.1783 7.17782C14.854 6.97975 14.449 6.96174 14.1081 7.13023L9.70805 9.30441C9.33539 9.48855 9.09999 9.86497 9.09999 10.2767V16.5426Z" fill="#DD4949"/>
<path d="M13.7322 4.88513C14.1049 4.70099 14.3403 4.32457 14.3403 3.91281C14.3403 3.50106 14.1049 3.12464 13.7322 2.9405L8.49192 0.351095C8.18224 0.198073 7.81773 0.198073 7.50805 0.351095L2.26773 2.9405C1.89507 3.12464 1.65966 3.50106 1.65966 3.91281C1.65966 4.32457 1.89507 4.70099 2.26773 4.88513L7.50805 7.47453C7.81773 7.62756 8.18224 7.62756 8.49192 7.47453L13.7322 4.88513Z" fill="#DD4949"/>
<path d="M1.89192 7.13023C1.55094 6.96174 1.14598 6.97975 0.821684 7.17782C0.497385 7.3759 0.299988 7.72579 0.299988 8.10255V14.3684C0.299988 14.7802 0.53539 15.1566 0.908053 15.3408L5.30805 17.5149C5.64904 17.6834 6.05399 17.6654 6.37829 17.4673C6.70259 17.2693 6.89999 16.9194 6.89999 16.5426V10.2767C6.89999 9.86497 6.66459 9.48855 6.29192 9.30441L1.89192 7.13023Z" fill="#DD4949"/>
</svg>
