<svg width="14" height="17" viewBox="0 0 14 17" fill="none" xmlns="http://www.w3.org/2000/svg">
<path fill-rule="evenodd" clip-rule="evenodd" d="M7.40032 15.9127C8.88621 15.1362 14 12.0973 14 7.04869C14 3.1558 10.866 0 7 0C3.13401 0 0 3.1558 0 7.04869C0 12.0973 5.11379 15.1363 6.59968 15.9127C6.85375 16.0455 7.14625 16.0455 7.40032 15.9127ZM7 10.07C8.65685 10.07 10 8.71728 10 7.04866C10 5.38003 8.65685 4.02734 7 4.02734C5.34315 4.02734 4 5.38003 4 7.04866C4 8.71728 5.34315 10.07 7 10.07Z" fill="white"/>
</svg>
