<svg width="20" height="18" viewBox="0 0 20 18" fill="none" xmlns="http://www.w3.org/2000/svg">
<path d="M1.91564 10.6904L9.39426 17.4523C9.65004 17.6836 9.77792 17.7992 9.92907 17.8209C9.97612 17.8276 10.0239 17.8276 10.0709 17.8209C10.2221 17.7992 10.35 17.6836 10.6057 17.4523L18.0844 10.6904C20.2819 8.70346 20.5463 5.34666 18.6871 3.04013L18.4626 2.76168C16.2935 0.0707664 12.066 0.53363 10.5305 3.63015C10.3129 4.06893 9.68707 4.06893 9.4695 3.63015C7.93403 0.53363 3.7065 0.0707662 1.53738 2.76168L1.31293 3.04013C-0.546344 5.34666 -0.281884 8.70346 1.91564 10.6904Z" fill="#DD4949"/>
</svg>
