<svg width="18" height="18" viewBox="0 0 18 18" fill="none" xmlns="http://www.w3.org/2000/svg">
<path fill-rule="evenodd" clip-rule="evenodd" d="M17.8 9.00019C17.8 13.8603 13.8601 17.8002 9.00001 17.8002C4.13991 17.8002 0.200012 13.8603 0.200012 9.00019C0.200012 4.14009 4.13991 0.200195 9.00001 0.200195C13.8601 0.200195 17.8 4.14009 17.8 9.00019ZM10.1 4.60019C10.1 5.20771 9.60752 5.70019 9.00001 5.70019C8.3925 5.70019 7.90001 5.20771 7.90001 4.60019C7.90001 3.99268 8.3925 3.5002 9.00001 3.5002C9.60752 3.5002 10.1 3.99268 10.1 4.60019ZM7.90001 7.90019C7.2925 7.90019 6.80001 8.39268 6.80001 9.00019C6.80001 9.60771 7.2925 10.1002 7.90001 10.1002V13.4002C7.90001 14.0077 8.3925 14.5002 9.00001 14.5002H10.1C10.7075 14.5002 11.2 14.0077 11.2 13.4002C11.2 12.7927 10.7075 12.3002 10.1 12.3002V9.00019C10.1 8.39268 9.60752 7.90019 9.00001 7.90019H7.90001Z" fill="#DD4949"/>
</svg>
