<svg width="16" height="13" viewBox="0 0 16 13" fill="none" xmlns="http://www.w3.org/2000/svg">
<path fill-rule="evenodd" clip-rule="evenodd" d="M0.261584 1.3309C0 1.85231 0 2.53487 0 3.9V9.1C0 10.4651 0 11.1477 0.261584 11.6691C0.49168 12.1277 0.858834 12.5006 1.31042 12.7343C1.82381 13 2.49587 13 3.84 13H12.16C13.5041 13 14.1762 13 14.6896 12.7343C15.1412 12.5006 15.5083 12.1277 15.7384 11.6691C16 11.1477 16 10.4651 16 9.1V3.9C16 2.53487 16 1.85231 15.7384 1.3309C15.5083 0.872253 15.1412 0.499363 14.6896 0.265672C14.1762 0 13.5041 0 12.16 0H3.84C2.49587 0 1.82381 0 1.31042 0.265672C0.858834 0.499363 0.49168 0.872253 0.261584 1.3309ZM4.45255 3.3925C4.08821 3.13865 3.59024 3.23285 3.34031 3.60288C3.09037 3.97291 3.18311 4.47866 3.54745 4.7325L6.64235 6.88878C7.46045 7.45876 8.53955 7.45877 9.35765 6.88878L12.4526 4.7325C12.8169 4.47866 12.9096 3.97291 12.6597 3.60288C12.4098 3.23285 11.9118 3.13865 11.5475 3.3925L8.45255 5.54877C8.17985 5.73877 7.82015 5.73877 7.54745 5.54877L4.45255 3.3925Z" fill="white"/>
</svg>
