<svg width="36" height="36" viewBox="0 0 36 36" fill="none" xmlns="http://www.w3.org/2000/svg">
<rect width="36" height="36" rx="8" fill="#E98114"/>
<path d="M22.9083 20.3654C23.311 19.9615 23.3685 19.3846 23.0234 18.8077C22.7358 18.3462 22.218 18.1154 21.6428 18.2308C21.4127 18.2885 21.1826 18.4039 20.9525 18.5769C19.1693 19.7885 16.7533 19.7308 14.9701 18.5192C14.855 18.4615 14.74 18.4038 14.6249 18.3462C13.9921 18.0577 13.3594 18.1731 13.0143 18.75C12.6116 19.3269 12.6691 19.9615 13.1868 20.4808C13.3019 20.5962 13.4169 20.6539 13.4744 20.7692L13.532 20.8269C14.3373 21.4615 15.3152 21.8654 16.5807 22.0385L15.8329 22.7885C15.2001 23.4231 14.5099 24.1154 13.8771 24.75C13.7045 24.9231 13.4744 25.2115 13.4744 25.6154C13.4744 26.1346 13.7621 26.6538 14.2798 26.8846C14.4523 27 14.6249 27 14.7975 27C15.0851 27 15.4302 26.8846 15.6603 26.5962C16.5232 25.7308 17.2135 25.0385 17.9038 24.3462C17.9613 24.2885 17.9613 24.2885 17.9613 24.2885C17.9613 24.2885 18.0188 24.2885 18.0188 24.3462C18.479 24.8654 18.9967 25.3269 19.4569 25.8462C19.687 26.0769 19.9171 26.3077 20.1472 26.5385C20.4348 26.8269 20.6649 26.9423 21.01 26.9423C21.5278 27 22.103 26.6538 22.3331 26.1346C22.5632 25.6731 22.4481 25.0962 22.0455 24.75C21.4702 24.1731 20.895 23.5385 20.2622 22.9615L19.2843 21.9808C19.802 21.9231 20.3773 21.8077 20.895 21.5769C21.7579 21.2885 22.3906 20.8846 22.9083 20.3654Z" fill="white"/>
<path d="M17.9613 18.75C20.4348 18.75 22.4481 16.7885 22.4481 14.3077C22.4481 13.0961 21.9879 11.9423 21.1251 11.0769C20.2622 10.2115 19.1693 9.75 18.0188 9.75C15.5453 9.75 13.5895 11.7692 13.532 14.1923C13.532 15.4038 13.9922 16.5 14.855 17.3654C15.6603 18.2885 16.7533 18.75 17.9613 18.75ZM16.6958 12.9808C17.0409 12.6346 17.5011 12.4615 17.9613 12.4615C18.9967 12.4615 19.7445 13.2692 19.7445 14.25C19.7445 15.2885 18.9392 16.0385 17.9613 16.0385C16.9259 16.0385 16.1781 15.2308 16.1781 14.25C16.1781 13.7885 16.3506 13.3269 16.6958 12.9808Z" fill="white"/>
<path d="M22.9083 20.3654C23.311 19.9615 23.3685 19.3846 23.0234 18.8077C22.7358 18.3462 22.218 18.1154 21.6428 18.2308C21.4127 18.2885 21.1826 18.4039 20.9525 18.5769C19.1693 19.7885 16.7533 19.7308 14.9701 18.5192C14.855 18.4615 14.74 18.4038 14.6249 18.3462C13.9921 18.0577 13.3594 18.1731 13.0143 18.75C12.6116 19.3269 12.6691 19.9615 13.1868 20.4808C13.3019 20.5962 13.4169 20.6539 13.4744 20.7692L13.532 20.8269C14.3373 21.4615 15.3152 21.8654 16.5807 22.0385L15.8329 22.7885C15.2001 23.4231 14.5099 24.1154 13.8771 24.75C13.7045 24.9231 13.4744 25.2115 13.4744 25.6154C13.4744 26.1346 13.7621 26.6538 14.2798 26.8846C14.4523 27 14.6249 27 14.7975 27C15.0851 27 15.4302 26.8846 15.6603 26.5962C16.5232 25.7308 17.2135 25.0385 17.9038 24.3462C17.9613 24.2885 17.9613 24.2885 17.9613 24.2885C17.9613 24.2885 18.0188 24.2885 18.0188 24.3462C18.479 24.8654 18.9967 25.3269 19.4569 25.8462C19.687 26.0769 19.9171 26.3077 20.1472 26.5385C20.4348 26.8269 20.6649 26.9423 21.01 26.9423C21.5278 27 22.103 26.6538 22.3331 26.1346C22.5632 25.6731 22.4481 25.0962 22.0455 24.75C21.4702 24.1731 20.895 23.5385 20.2622 22.9615L19.2843 21.9808C19.802 21.9231 20.3773 21.8077 20.895 21.5769C21.7579 21.2885 22.3906 20.8846 22.9083 20.3654Z" fill="white"/>
</svg>
