<svg width="38" height="16" viewBox="0 0 38 16" fill="none" xmlns="http://www.w3.org/2000/svg">
<path d="M4.29688 15V4.45312H4.21875L0.761719 6.73828V3.27148L4.29688 0.908203H8.4375V15H4.29688ZM17.2852 15.3906C15.3711 15.3906 13.8574 14.7266 12.7441 13.3984C11.6309 12.0638 11.0742 10.2376 11.0742 7.91992C11.0742 5.5957 11.6309 3.7793 12.7441 2.4707C13.8639 1.16211 15.3776 0.507812 17.2852 0.507812C19.1927 0.507812 20.7031 1.16211 21.8164 2.4707C22.9297 3.77279 23.4863 5.58594 23.4863 7.91016C23.4863 10.2279 22.9297 12.054 21.8164 13.3887C20.7031 14.7233 19.1927 15.3906 17.2852 15.3906ZM15.8398 11.1133C16.2044 11.8424 16.6862 12.207 17.2852 12.207C17.8841 12.207 18.3626 11.8424 18.7207 11.1133C19.0853 10.3841 19.2676 9.31966 19.2676 7.91992C19.2676 6.52018 19.0885 5.46549 18.7305 4.75586C18.3724 4.04622 17.8906 3.69141 17.2852 3.69141C16.6797 3.69141 16.1947 4.04622 15.8301 4.75586C15.472 5.46549 15.293 6.52018 15.293 7.91992C15.293 9.31966 15.4753 10.3841 15.8398 11.1133ZM31.1914 15.3906C29.2773 15.3906 27.7637 14.7266 26.6504 13.3984C25.5371 12.0638 24.9805 10.2376 24.9805 7.91992C24.9805 5.5957 25.5371 3.7793 26.6504 2.4707C27.7702 1.16211 29.2839 0.507812 31.1914 0.507812C33.099 0.507812 34.6094 1.16211 35.7227 2.4707C36.8359 3.77279 37.3926 5.58594 37.3926 7.91016C37.3926 10.2279 36.8359 12.054 35.7227 13.3887C34.6094 14.7233 33.099 15.3906 31.1914 15.3906ZM29.7461 11.1133C30.1107 11.8424 30.5924 12.207 31.1914 12.207C31.7904 12.207 32.2689 11.8424 32.627 11.1133C32.9915 10.3841 33.1738 9.31966 33.1738 7.91992C33.1738 6.52018 32.9948 5.46549 32.6367 4.75586C32.2786 4.04622 31.7969 3.69141 31.1914 3.69141C30.5859 3.69141 30.1009 4.04622 29.7363 4.75586C29.3783 5.46549 29.1992 6.52018 29.1992 7.91992C29.1992 9.31966 29.3815 10.3841 29.7461 11.1133Z" fill="white"/>
</svg>
