<svg width="42" height="38" viewBox="0 0 42 38" fill="none" xmlns="http://www.w3.org/2000/svg">
<path d="M7.60397 33.1905C5.64319 30.125 5.03334 29.6552 2.59056 29.3283C-0.953888 28.8538 -0.756407 26.9864 2.85655 26.8138C6.2979 26.6491 7.14585 27.0273 10.4926 30.2167C14.2461 33.7942 14.9138 33.9884 22.1542 33.6051C28.0423 33.2936 28.1548 33.3173 30.3378 35.3472C32.8426 37.6763 32.4202 38.6525 29.7521 36.7012C27.3774 34.9644 24.4517 35.0241 19.7281 36.9061C14.1975 39.1097 10.7055 38.0396 7.60397 33.1908V33.1905ZM12.575 29.1252C10.9882 27.2809 9.24521 20.4156 9.85194 18.3996C10.3063 16.8893 10.6948 17.0636 11.8589 19.3007C12.3869 20.3155 14.0295 21.7419 15.5091 22.4706C20.6573 25.0061 22.0696 29.6 18.1144 30.9452C15.7254 31.7576 14.4909 31.3521 12.575 29.1252ZM23.3971 28.7502C24.0384 27.0962 24.416 24.4446 24.2535 22.7345C23.8865 18.8716 24.1571 18.0082 26.0646 16.9577C27.5061 16.1637 27.6364 16.2093 28.1356 17.6815C28.7705 19.5545 27.0846 25.5272 24.9582 28.9389C22.827 32.3584 22.0353 32.2628 23.3971 28.7502ZM2.57449 23.5662C0.372486 21.7422 -0.296502 19.0356 0.449251 14.9691C0.851806 12.7747 0.843102 9.90887 0.429836 8.6005C-0.39201 5.99833 -0.0918796 5.82081 1.82249 7.7762C2.51446 8.4829 4.12066 9.33435 5.3917 9.66852C7.27349 10.1629 7.78205 10.7237 8.12881 12.6881C8.36312 14.0151 8.37249 15.7068 8.14956 16.4474C7.92686 17.1882 8.03375 19.5181 8.38744 21.6252C8.7409 23.7323 8.81632 25.5741 8.55457 25.7182C7.83939 26.1121 3.96446 24.7175 2.57449 23.566V23.5662ZM26.9206 28.7825C27.6302 27.3857 29.179 25.6579 30.3624 24.9428C31.5457 24.2278 33.3374 22.7603 34.3438 21.6816C35.3501 20.6028 36.8782 19.5724 37.7398 19.392C39.7394 18.9728 42.2592 19.726 41.9785 20.6589C41.86 21.0527 41.4333 21.2749 41.0305 21.1521C40.6278 21.0296 39.2704 21.5476 38.0141 22.3032C36.2329 23.3744 35.4961 24.4532 34.6693 27.2012C33.1475 32.2594 31.9311 33.2395 28.4793 32.189L25.6304 31.322L26.9206 28.7825ZM20.7062 24.4462C20.2757 23.5081 18.3719 21.6638 16.4754 20.3476C14.5791 19.0314 12.5333 17.2075 11.9294 16.2948C10.9681 14.8412 11.0241 14.268 12.3817 11.6807C14.1888 8.23649 16.1603 7.57646 15.2103 10.7338C14.3506 13.5912 15.1811 15.3738 18.2657 17.2921C21.2478 19.1467 22.3996 21.1593 22.2356 24.229C22.1026 26.7191 21.7706 26.7665 20.7062 24.4462ZM29.4977 20.5745C29.6468 19.2221 29.2638 16.3787 28.6471 14.2557C27.2415 9.41829 28.0883 6.14174 31.1847 4.43636C34.1626 2.79652 35.0935 3.18342 33.849 5.54343C33.0281 7.10024 33.1821 8.23783 34.6832 11.7094C35.6958 14.0506 36.4268 16.2896 36.3079 16.6853C35.8118 18.3336 30.9267 23.5508 30.1116 23.3028C29.6251 23.1547 29.3489 21.9271 29.4977 20.5747V20.5745ZM20.8042 16.8956C20.6692 16.6363 21.1362 15.0656 21.842 13.4056C22.9796 10.7294 22.96 10.1851 21.6695 8.60678C19.8353 6.36346 20.5384 5.68863 23.7057 6.65274C25.8687 7.31097 26.207 7.75443 26.4433 10.2399C26.5914 11.7996 26.6894 13.1533 26.6608 13.248C26.4747 13.8663 21.0016 17.2748 20.8042 16.8953V16.8956ZM17.5659 13.3194C16.5541 11.8708 16.5088 11.1212 17.347 9.69971C18.7878 7.25643 20.9764 8.35296 19.887 10.9724C19.468 11.9798 19.3863 13.1069 19.7056 13.4767C20.3768 14.2543 20.1291 15.5813 19.3611 15.3219C19.0754 15.2254 18.2674 14.3244 17.5656 13.3194H17.5659ZM10.7468 8.02598C11.8551 4.1417 11.9575 4.03173 16.3283 2.0346L20.781 0L23.5038 2.26351C26.705 4.92447 26.3496 6.20121 22.779 4.86635C20.658 4.07347 20.0693 4.17334 19.0674 5.49608C18.2572 6.56589 17.3407 6.90521 16.1993 6.55781C14.8647 6.15183 14.021 6.65386 12.0698 9.01522L9.61742 11.9832L10.7465 8.0262L10.7468 8.02598Z" fill="#DED8D5"/>
<path d="M7.60397 33.1905C5.64319 30.125 5.03334 29.6552 2.59056 29.3283C-0.953888 28.8538 -0.756407 26.9864 2.85655 26.8138C6.2979 26.6491 7.14585 27.0273 10.4926 30.2167C14.2461 33.7942 14.9138 33.9884 22.1542 33.6051C28.0423 33.2936 28.1548 33.3173 30.3378 35.3472C32.8426 37.6763 32.4202 38.6525 29.7521 36.7012C27.3774 34.9644 24.4517 35.0241 19.7281 36.9061C14.1975 39.1097 10.7055 38.0396 7.60397 33.1908V33.1905ZM12.575 29.1252C10.9882 27.2809 9.24521 20.4156 9.85194 18.3996C10.3063 16.8893 10.6948 17.0636 11.8589 19.3007C12.3869 20.3155 14.0295 21.7419 15.5091 22.4706C20.6573 25.0061 22.0696 29.6 18.1144 30.9452C15.7254 31.7576 14.4909 31.3521 12.575 29.1252ZM23.3971 28.7502C24.0384 27.0962 24.416 24.4446 24.2535 22.7345C23.8865 18.8716 24.1571 18.0082 26.0646 16.9577C27.5061 16.1637 27.6364 16.2093 28.1356 17.6815C28.7705 19.5545 27.0846 25.5272 24.9582 28.9389C22.827 32.3584 22.0353 32.2628 23.3971 28.7502ZM2.57449 23.5662C0.372486 21.7422 -0.296502 19.0356 0.449251 14.9691C0.851806 12.7747 0.843102 9.90887 0.429836 8.6005C-0.39201 5.99833 -0.0918796 5.82081 1.82249 7.7762C2.51446 8.4829 4.12066 9.33435 5.3917 9.66852C7.27349 10.1629 7.78205 10.7237 8.12881 12.6881C8.36312 14.0151 8.37249 15.7068 8.14956 16.4474C7.92686 17.1882 8.03375 19.5181 8.38744 21.6252C8.7409 23.7323 8.81632 25.5741 8.55457 25.7182C7.83939 26.1121 3.96446 24.7175 2.57449 23.566V23.5662ZM26.9206 28.7825C27.6302 27.3857 29.179 25.6579 30.3624 24.9428C31.5457 24.2278 33.3374 22.7603 34.3438 21.6816C35.3501 20.6028 36.8782 19.5724 37.7398 19.392C39.7394 18.9728 42.2592 19.726 41.9785 20.6589C41.86 21.0527 41.4333 21.2749 41.0305 21.1521C40.6278 21.0296 39.2704 21.5476 38.0141 22.3032C36.2329 23.3744 35.4961 24.4532 34.6693 27.2012C33.1475 32.2594 31.9311 33.2395 28.4793 32.189L25.6304 31.322L26.9206 28.7825ZM20.7062 24.4462C20.2757 23.5081 18.3719 21.6638 16.4754 20.3476C14.5791 19.0314 12.5333 17.2075 11.9294 16.2948C10.9681 14.8412 11.0241 14.268 12.3817 11.6807C14.1888 8.23649 16.1603 7.57646 15.2103 10.7338C14.3506 13.5912 15.1811 15.3738 18.2657 17.2921C21.2478 19.1467 22.3996 21.1593 22.2356 24.229C22.1026 26.7191 21.7706 26.7665 20.7062 24.4462ZM29.4977 20.5745C29.6468 19.2221 29.2638 16.3787 28.6471 14.2557C27.2415 9.41829 28.0883 6.14174 31.1847 4.43636C34.1626 2.79652 35.0935 3.18342 33.849 5.54343C33.0281 7.10024 33.1821 8.23783 34.6832 11.7094C35.6958 14.0506 36.4268 16.2896 36.3079 16.6853C35.8118 18.3336 30.9267 23.5508 30.1116 23.3028C29.6251 23.1547 29.3489 21.9271 29.4977 20.5747V20.5745ZM20.8042 16.8956C20.6692 16.6363 21.1362 15.0656 21.842 13.4056C22.9796 10.7294 22.96 10.1851 21.6695 8.60678C19.8353 6.36346 20.5384 5.68863 23.7057 6.65274C25.8687 7.31097 26.207 7.75443 26.4433 10.2399C26.5914 11.7996 26.6894 13.1533 26.6608 13.248C26.4747 13.8663 21.0016 17.2748 20.8042 16.8953V16.8956ZM17.5659 13.3194C16.5541 11.8708 16.5088 11.1212 17.347 9.69971C18.7878 7.25643 20.9764 8.35296 19.887 10.9724C19.468 11.9798 19.3863 13.1069 19.7056 13.4767C20.3768 14.2543 20.1291 15.5813 19.3611 15.3219C19.0754 15.2254 18.2674 14.3244 17.5656 13.3194H17.5659ZM10.7468 8.02598C11.8551 4.1417 11.9575 4.03173 16.3283 2.0346L20.781 0L23.5038 2.26351C26.705 4.92447 26.3496 6.20121 22.779 4.86635C20.658 4.07347 20.0693 4.17334 19.0674 5.49608C18.2572 6.56589 17.3407 6.90521 16.1993 6.55781C14.8647 6.15183 14.021 6.65386 12.0698 9.01522L9.61742 11.9832L10.7465 8.0262L10.7468 8.02598Z" fill="#DED8D5"/>
</svg>
