<svg width="114" height="114" viewBox="0 0 114 114" fill="none" xmlns="http://www.w3.org/2000/svg">
<rect width="113.953" height="113.953" rx="16" fill="#33AADE"/>
<path fill-rule="evenodd" clip-rule="evenodd" d="M32.5604 53.4081C46.5161 47.0776 55.8067 42.8711 60.4719 40.8303C73.7498 35.0412 76.541 34.0416 78.3353 34C78.734 34 79.6113 34.0833 80.2094 34.5831C80.6879 34.9996 80.8075 35.541 80.8872 35.9575C80.967 36.374 81.0467 37.2486 80.967 37.9149C80.2492 45.8281 77.1391 65.028 75.5442 73.8575C74.8663 77.6058 73.5505 78.8553 72.2745 78.9802C69.4834 79.2301 67.3701 77.0644 64.6985 75.2319C60.4719 72.3581 58.1194 70.5672 54.0124 67.7352C49.2674 64.4866 52.3377 62.6957 55.0491 59.7803C55.7668 59.0307 68.008 47.3691 68.2473 46.3279C68.2872 46.203 68.2872 45.7032 68.008 45.4533C67.7289 45.2034 67.3302 45.2867 67.0112 45.37C66.5726 45.4533 59.8738 50.1179 46.8351 59.3222C44.9212 60.6966 43.2066 61.363 41.6516 61.3213C39.937 61.2797 36.6674 60.3218 34.1952 59.4888C31.2047 58.4892 28.8122 57.9478 29.0116 56.1986C29.1312 55.2823 30.3274 54.366 32.5604 53.4081Z" fill="white"/>
</svg>
