<svg width="22" height="22" viewBox="0 0 22 22" fill="none" xmlns="http://www.w3.org/2000/svg">
<path d="M18.9659 2.14216C18.4205 1.64258 16.2113 0.0365801 11.2915 0.0154968C11.2915 0.0154968 5.48628 -0.33192 2.65837 2.26316C1.08537 3.83616 0.534449 6.13975 0.471199 8.997C0.407949 11.8542 0.337365 17.2094 5.49912 18.6651H5.5037L5.49912 20.8825C5.49912 20.8825 5.4652 21.7808 6.05553 21.9614C6.7687 22.1851 7.19037 21.5012 7.87328 20.7661C8.24728 20.3618 8.76245 19.7697 9.15387 19.3177C9.70387 19.3718 10.3419 19.4021 10.9881 19.4021C12.6629 19.4021 14.2899 19.1958 15.8446 18.8072L15.7071 18.8365C16.4203 18.6046 20.4555 18.0885 21.1081 12.7342C21.7901 7.20675 20.7836 3.71975 18.9659 2.14216ZM19.5635 12.3309C19.0071 16.7997 15.7383 17.0838 15.1369 17.2763C13.8243 17.61 12.3173 17.8007 10.7654 17.8007C10.3199 17.8007 9.87803 17.7851 9.44078 17.7539L9.49945 17.7576C9.49945 17.7576 7.26462 20.4517 6.56887 21.152C6.34153 21.3793 6.09128 21.361 6.09587 20.9072C6.09587 20.6112 6.11328 17.2241 6.11328 17.2241C1.74353 16.0122 1.99653 11.4509 2.04787 9.0685C2.0992 6.68608 2.54653 4.72808 3.87845 3.41358C6.27278 1.24383 11.2017 1.56558 11.2017 1.56558C15.3661 1.583 17.3599 2.83791 17.8237 3.25866C19.3582 4.57408 20.1401 7.72008 19.5635 12.33V12.3309ZM13.5951 8.85858V8.87141C13.5951 9.02541 13.4704 9.15008 13.3164 9.15008C13.167 9.15008 13.0451 9.03275 13.0387 8.88516V8.88425C13.0424 8.84575 13.0451 8.79991 13.0451 8.755C13.0451 8.02075 12.4502 7.42583 11.7159 7.42583C11.6884 7.42583 11.6609 7.42675 11.6344 7.42858H11.638C11.4904 7.42033 11.374 7.29933 11.374 7.15083C11.374 6.99683 11.4987 6.87216 11.6527 6.87216H11.6683H11.6674C11.6857 6.87125 11.7086 6.87125 11.7306 6.87125C12.7628 6.87125 13.5988 7.70725 13.5988 8.73941C13.5988 8.78158 13.5969 8.82375 13.5942 8.865V8.8595L13.5951 8.85858ZM14.4669 9.34533C14.5099 7.523 13.3714 6.09666 11.2099 5.93716C11.0642 5.92708 10.9505 5.80608 10.9505 5.65941C10.9505 5.50541 11.0752 5.38075 11.2292 5.38075C11.2356 5.38075 11.2429 5.38075 11.2494 5.38166H11.2484H11.264C13.3421 5.38166 15.0279 7.0665 15.0279 9.1455C15.0279 9.21975 15.026 9.294 15.0214 9.36733L15.0224 9.35725C15.0187 9.5085 14.8959 9.62858 14.7446 9.62858C14.5906 9.62858 14.4659 9.50391 14.4659 9.34991C14.4659 9.34716 14.4659 9.34533 14.4659 9.34258L14.4669 9.34533ZM16.4835 9.92191V9.92375C16.4835 10.0777 16.3589 10.2024 16.2049 10.2024C16.0509 10.2024 15.928 10.0787 15.9271 9.9265C15.9051 6.423 13.5685 4.51541 10.7369 4.49525C10.5829 4.49525 10.4592 4.37058 10.4592 4.2175C10.4592 4.06441 10.5839 3.93975 10.7369 3.93975C13.9077 3.96175 16.456 6.14983 16.4817 9.921L16.4835 9.92191ZM16.0023 14.1367V14.145C15.5384 14.9617 14.6704 15.8637 13.7766 15.5759L13.7684 15.5631C12.089 14.9361 10.637 14.1166 9.33995 13.1073L9.37753 13.1348C8.69645 12.5922 8.09787 11.9936 7.57262 11.3354L7.5552 11.3125C7.08862 10.7277 6.65137 10.0732 6.27003 9.382L6.23337 9.30958C5.81445 8.62575 5.43587 7.83558 5.13978 7.006L5.11228 6.91616C4.82445 6.02241 5.72187 5.15433 6.5432 4.6905H6.55145C6.67062 4.61441 6.81545 4.56858 6.97128 4.56858C7.21603 4.56858 7.4342 4.68133 7.57812 4.85641L7.57903 4.85825C7.57903 4.85825 8.11162 5.4935 8.33987 5.80791C8.55437 6.10033 8.84312 6.56875 8.99253 6.83C9.0787 6.96475 9.12912 7.12975 9.12912 7.30666C9.12912 7.57066 9.01545 7.80808 8.83395 7.97216L8.83303 7.97308L8.31787 8.38558C8.17578 8.52308 8.08778 8.71558 8.08778 8.92825C8.08778 8.94933 8.0887 8.9695 8.09053 8.98966V8.98691C8.62128 10.7313 9.96787 12.0779 11.6747 12.5995L11.7132 12.6096C11.7306 12.6114 11.7517 12.6123 11.7719 12.6123C11.9845 12.6123 12.177 12.5243 12.3145 12.3832L12.727 11.868C12.892 11.6856 13.1294 11.5719 13.3934 11.5719C13.5704 11.5719 13.7344 11.6232 13.8738 11.7112L13.8701 11.7094C14.6154 12.1338 15.2598 12.6004 15.8474 13.1293L15.8373 13.1202C16.0133 13.2613 16.1242 13.4767 16.1242 13.7178C16.1242 13.8727 16.0784 14.0167 15.9986 14.1377L16.0004 14.1349L16.0023 14.1367Z" fill="#009378"/>
</svg>
