<svg width="18" height="19" viewBox="0 0 18 19" fill="none" xmlns="http://www.w3.org/2000/svg">
<path d="M1.30001 0.0996094C0.692499 0.0996094 0.200012 0.592096 0.200012 1.19961C0.200012 1.80712 0.692499 2.29961 1.30001 2.29961H2.64116L2.97727 3.64408C2.9808 3.65962 2.98466 3.67504 2.98884 3.69033L4.48179 9.66214L3.49996 10.644C2.11404 12.0299 3.0956 14.3996 5.05559 14.3996H14.5C15.1075 14.3996 15.6 13.9071 15.6 13.2996C15.6 12.6921 15.1075 12.1996 14.5 12.1996L5.05559 12.1996L6.15559 11.0996H13.4C13.8167 11.0996 14.1976 10.8642 14.3839 10.4915L17.6839 3.89154C17.8544 3.55056 17.8362 3.1456 17.6357 2.82131C17.4353 2.49701 17.0812 2.29961 16.7 2.29961H4.90887L4.56717 0.93282C4.44475 0.443136 4.00477 0.0996094 3.50001 0.0996094H1.30001Z" fill="#DD4949"/>
<path d="M15.6 17.1496C15.6 18.0609 14.8613 18.7996 13.95 18.7996C13.0387 18.7996 12.3 18.0609 12.3 17.1496C12.3 16.2383 13.0387 15.4996 13.95 15.4996C14.8613 15.4996 15.6 16.2383 15.6 17.1496Z" fill="#DD4949"/>
<path d="M5.15001 18.7996C6.06128 18.7996 6.80001 18.0609 6.80001 17.1496C6.80001 16.2383 6.06128 15.4996 5.15001 15.4996C4.23874 15.4996 3.50001 16.2383 3.50001 17.1496C3.50001 18.0609 4.23874 18.7996 5.15001 18.7996Z" fill="#DD4949"/>
</svg>
