<svg width="20" height="20" viewBox="0 0 20 20" fill="none" xmlns="http://www.w3.org/2000/svg">
<path d="M4.16667 4.33398L2.5 6.00065" stroke="#09A98C" stroke-width="2" stroke-linecap="round"/>
<path d="M15.8333 4.33398L17.5 6.00065" stroke="#09A98C" stroke-width="2" stroke-linecap="round"/>
<path fill-rule="evenodd" clip-rule="evenodd" d="M10 17.6673C13.6819 17.6673 16.6667 14.6825 16.6667 11.0007C16.6667 7.31875 13.6819 4.33398 10 4.33398C6.31814 4.33398 3.33337 7.31875 3.33337 11.0007C3.33337 14.6825 6.31814 17.6673 10 17.6673ZM12.4476 9.54201C12.7926 9.11075 12.7227 8.48146 12.2914 8.13645C11.8601 7.79144 11.2308 7.86136 10.8858 8.29262L9.7919 9.66004L8.05474 8.50193C7.59521 8.19558 6.97434 8.31976 6.66799 8.77928C6.36164 9.23881 6.48581 9.85968 6.94534 10.166L9.25463 11.7056C9.79412 12.0652 10.519 11.9527 10.9241 11.4464L12.4476 9.54201Z" fill="#09A98C"/>
</svg>
