<svg width="22" height="22" viewBox="0 0 22 22" fill="none" xmlns="http://www.w3.org/2000/svg">
<path fill-rule="evenodd" clip-rule="evenodd" d="M0.727159 0.727403C1.4301 0.0244593 2.5698 0.0244593 3.27274 0.727403L11 8.45461L18.7272 0.727403C19.4301 0.0244593 20.5698 0.0244593 21.2727 0.727403C21.9757 1.43035 21.9757 2.57004 21.2727 3.27299L13.5455 11.0002L21.2727 18.7274C21.9757 19.4303 21.9757 20.57 21.2727 21.273C20.5698 21.9759 19.4301 21.9759 18.7272 21.273L11 13.5458L3.27274 21.273C2.5698 21.9759 1.4301 21.9759 0.727159 21.273C0.0242152 20.57 0.0242152 19.4303 0.727159 18.7274L8.45437 11.0002L0.727159 3.27299C0.0242152 2.57004 0.0242152 1.43035 0.727159 0.727403Z" fill="#383838"/>
</svg>
