<svg width="14" height="14" viewBox="0 0 14 14" fill="none" xmlns="http://www.w3.org/2000/svg">
<path d="M7.00016 0.333008C3.3335 0.333008 0.333496 3.33301 0.333496 6.99967C0.333496 10.6663 3.3335 13.6663 7.00016 13.6663C10.6668 13.6663 13.6668 10.6663 13.6668 6.99967C13.6668 3.33301 10.6668 0.333008 7.00016 0.333008ZM4.88683 3.69967C5.54016 3.69967 6.06683 4.22634 6.06683 4.88634C6.06683 5.53967 5.54016 6.06634 4.88683 6.06634C4.22683 6.06634 3.70016 5.53967 3.70016 4.88634C3.70016 4.22634 4.22683 3.69967 4.88683 3.69967ZM9.14683 10.333C8.4935 10.333 7.96683 9.79967 7.96683 9.14634C7.96683 8.49301 8.4935 7.96634 9.14683 7.96634C9.80016 7.96634 10.3335 8.49301 10.3335 9.14634C10.3335 9.79967 9.80016 10.333 9.14683 10.333ZM4.66683 10.353L3.66683 9.35301L9.3535 3.66634L10.3535 4.66634L4.66683 10.353Z" fill="#FDD835"/>
<path d="M7.00016 0.333008C3.3335 0.333008 0.333496 3.33301 0.333496 6.99967C0.333496 10.6663 3.3335 13.6663 7.00016 13.6663C10.6668 13.6663 13.6668 10.6663 13.6668 6.99967C13.6668 3.33301 10.6668 0.333008 7.00016 0.333008ZM4.88683 3.69967C5.54016 3.69967 6.06683 4.22634 6.06683 4.88634C6.06683 5.53967 5.54016 6.06634 4.88683 6.06634C4.22683 6.06634 3.70016 5.53967 3.70016 4.88634C3.70016 4.22634 4.22683 3.69967 4.88683 3.69967ZM9.14683 10.333C8.4935 10.333 7.96683 9.79967 7.96683 9.14634C7.96683 8.49301 8.4935 7.96634 9.14683 7.96634C9.80016 7.96634 10.3335 8.49301 10.3335 9.14634C10.3335 9.79967 9.80016 10.333 9.14683 10.333ZM4.66683 10.353L3.66683 9.35301L9.3535 3.66634L10.3535 4.66634L4.66683 10.353Z" fill="url(#paint0_linear_149_1144)" fill-opacity="0.6"/>
<defs>
<linearGradient id="paint0_linear_149_1144" x1="7.00016" y1="0.333008" x2="7.00016" y2="13.6663" gradientUnits="userSpaceOnUse">
<stop stop-color="#FFF6A3" stop-opacity="0.54"/>
<stop offset="1" stop-color="#F44434"/>
</linearGradient>
</defs>
</svg>
