<svg width="24" height="24" viewBox="0 0 24 24" fill="none" xmlns="http://www.w3.org/2000/svg">
<path d="M22.8363 8.6666C22.0386 5.92441 21.3066 3.72626 18.5644 4.52393C18.5137 4.53872 18.4634 4.55476 18.4134 4.57202C18.0377 4.69345 17.6771 4.85738 17.3385 5.0606C17.1093 5.19832 16.8338 4.98607 16.9021 4.7276C17.016 4.29588 17.0735 3.85123 17.0732 3.40474C17.0732 0.548883 14.7581 0.459961 11.9023 0.459961C9.04641 0.459961 6.7313 0.548883 6.7313 3.40474C6.7313 3.45701 6.73271 3.50984 6.73528 3.56304C6.7445 3.87382 6.78165 4.18315 6.84628 4.48727C6.89935 4.73665 6.63558 4.9353 6.41414 4.80902C6.09654 4.62802 5.76063 4.48123 5.41205 4.37112C2.68913 3.50998 1.90622 5.69051 1.04508 8.41348C0.183939 11.1364 -0.429373 13.3706 2.29355 14.2317C2.34338 14.2475 2.39414 14.2621 2.44566 14.2757C2.70128 14.3482 2.96209 14.401 3.2258 14.4336C3.47311 14.4641 3.57305 14.7685 3.39239 14.9402C3.16152 15.1595 2.95147 15.3998 2.76492 15.6579C1.09135 17.972 2.9152 19.4008 5.22933 21.0743C7.54345 22.7479 9.47152 24.0325 11.1451 21.7184C11.176 21.6755 11.2059 21.632 11.2347 21.5876L11.2377 21.5831C11.3613 21.4005 11.6346 21.4041 11.7416 21.597C11.7697 21.6475 11.7986 21.6976 11.8284 21.7471C13.3019 24.1935 15.3309 23.0752 17.7774 21.6018C20.2238 20.1283 22.1611 18.8577 20.6877 16.4113C20.6604 16.3661 20.632 16.3216 20.6025 16.2777C20.339 15.8679 20.0188 15.4975 19.6514 15.1775C19.4418 14.9951 19.5729 14.6496 19.8505 14.6583C20.3786 14.6748 20.9182 14.6099 21.453 14.4543C24.1952 13.6566 23.634 11.4088 22.8363 8.6666Z" fill="#FF929D"/>
<path d="M15.9603 9.1269L15.8865 9.11237C15.8196 9.10124 15.7523 9.09245 15.6847 9.08603C15.5992 9.07778 15.4973 9.07224 15.3821 9.06953C15.256 9.06776 15.1298 9.07132 15.004 9.08021C14.7322 9.09962 14.4256 9.14574 14.1105 9.22487C14.0245 9.24667 13.9377 9.2709 13.8506 9.29706C13.8449 9.18614 13.8362 9.0754 13.8246 8.96495C13.8081 8.79756 13.7813 8.63321 13.7385 8.47478C13.654 8.1579 13.5134 7.86451 13.3469 7.61481C13.2676 7.49559 13.1801 7.38215 13.0848 7.27534C13.0401 7.22504 12.9977 7.17793 12.9532 7.13462C12.9117 7.09117 12.8681 7.05151 12.8292 7.0156C12.7907 6.9797 12.7513 6.94787 12.7191 6.92007L12.6281 6.84985C12.609 6.83451 12.5893 6.82001 12.569 6.8064L12.5474 6.79154C12.0628 6.45901 11.3977 6.46571 10.9164 6.85323L10.896 6.86968C10.8818 6.88056 10.8627 6.89659 10.8403 6.91745L10.7548 6.99437C10.7248 7.02451 10.6879 7.05924 10.6522 7.09792C10.6161 7.13663 10.5756 7.17948 10.5375 7.22593C10.4964 7.27248 10.4577 7.32264 10.4169 7.37617C10.33 7.48987 10.2512 7.60961 10.1813 7.73448C10.0341 7.99609 9.91603 8.29928 9.85571 8.62159C9.82491 8.78279 9.81061 8.94868 9.80682 9.11682C9.80541 9.16234 9.80466 9.20799 9.80428 9.25384C9.76758 9.24381 9.73097 9.23406 9.69455 9.22482C9.37946 9.14565 9.07289 9.09957 8.80102 9.08017C8.67521 9.07127 8.54908 9.06771 8.42297 9.06948C8.30775 9.07224 8.20589 9.07773 8.12035 9.08598C8.03475 9.09432 7.96599 9.10426 7.9185 9.11232L7.84472 9.12685C7.0051 9.29228 6.45858 10.107 6.624 10.9466C6.65817 11.12 6.72366 11.2863 6.80771 11.431L6.84572 11.4959C6.88178 11.5534 6.91983 11.6096 6.95982 11.6644C7.01035 11.7339 7.07377 11.8138 7.14816 11.9019C7.23045 11.9975 7.31677 12.0895 7.40686 12.1778C7.60163 12.3684 7.83947 12.5673 8.10764 12.7507C8.24482 12.844 8.3857 12.9317 8.52994 13.0137C8.60466 13.0554 8.68055 13.096 8.75742 13.1354C8.74313 13.1529 8.72817 13.1699 8.71411 13.1876C8.60855 13.3217 8.50674 13.4585 8.41266 13.5981C8.31741 13.7367 8.23205 13.8797 8.16277 14.0284C8.02327 14.3252 7.9418 14.6402 7.90824 14.9385C7.89203 15.0807 7.88592 15.2239 7.88996 15.3669C7.89174 15.4342 7.8938 15.4975 7.89994 15.5593C7.90369 15.6193 7.91152 15.6777 7.91813 15.7302C7.92446 15.7825 7.93407 15.8322 7.94086 15.8743L7.96519 15.9866C7.97119 16.0167 7.97728 16.0409 7.98244 16.0579L7.98938 16.0832C8.14575 16.6497 8.65875 17.0731 9.27652 17.0868L9.30272 17.0874C9.32053 17.0882 9.34547 17.0882 9.37608 17.0867L9.49097 17.0829C9.53339 17.0792 9.58397 17.0764 9.63619 17.0698C9.68869 17.0634 9.74728 17.0567 9.80635 17.0458C9.86775 17.0366 9.92967 17.0232 9.99535 17.0086C10.1351 16.9776 10.2725 16.9368 10.4064 16.8864C10.6875 16.7811 10.9732 16.6253 11.2269 16.4176C11.3543 16.3142 11.4721 16.1965 11.5834 16.0703C11.6958 15.9451 11.8037 15.8129 11.9079 15.6779C11.9487 15.6241 11.9886 15.5696 12.0276 15.5145C12.0665 15.5696 12.1064 15.6241 12.1472 15.6779C12.2514 15.8129 12.3593 15.9451 12.4718 16.0703C12.583 16.1965 12.7008 16.3142 12.8282 16.4176C13.082 16.6253 13.3676 16.7811 13.6487 16.8864C13.7827 16.9368 13.92 16.9776 14.0598 17.0086C14.1255 17.0232 14.1874 17.0366 14.2488 17.0458C14.3078 17.0567 14.3664 17.0634 14.4189 17.0698C14.4712 17.0764 14.5217 17.0792 14.5642 17.0829L14.679 17.0867C14.7097 17.0882 14.7346 17.0882 14.7524 17.0874L14.7786 17.0868C15.3964 17.0731 15.9094 16.6497 16.0658 16.0832L16.0727 16.0579C16.0778 16.0408 16.0839 16.0166 16.0899 15.9866L16.1143 15.8743C16.121 15.8322 16.1307 15.7825 16.137 15.7302C16.1436 15.6778 16.1514 15.6193 16.1552 15.5593C16.1613 15.4975 16.1634 15.4342 16.1652 15.3669C16.1693 15.2239 16.1631 15.0807 16.1469 14.9385C16.1133 14.6402 16.0319 14.3252 15.8924 14.0284C15.8231 13.8797 15.7377 13.7367 15.6425 13.5981C15.5484 13.4585 15.4465 13.3217 15.341 13.1876C15.3021 13.1386 15.2616 13.0908 15.2212 13.0431C15.2391 13.0333 15.2571 13.0237 15.2749 13.0138C15.4191 12.9318 15.56 12.844 15.6972 12.7507C15.9653 12.5673 16.2032 12.3684 16.398 12.1779C16.4881 12.0896 16.5744 11.9975 16.6567 11.9019C16.731 11.8139 16.7944 11.734 16.845 11.6645C16.885 11.6096 16.923 11.5534 16.959 11.4959L16.9971 11.4311C17.0811 11.2864 17.1466 11.1201 17.1808 10.9466C17.3465 10.1071 16.8 9.29232 15.9603 9.1269Z" fill="#FF473E"/>
<path d="M11.8882 14.1084C13.0699 14.1084 14.0278 13.1505 14.0278 11.9688C14.0278 10.7871 13.0699 9.8291 11.8882 9.8291C10.7065 9.8291 9.74854 10.7871 9.74854 11.9688C9.74854 13.1505 10.7065 14.1084 11.8882 14.1084Z" fill="#FFB636"/>
<path d="M11.8882 12.9742C12.4431 12.9742 12.8929 12.5244 12.8929 11.9695C12.8929 11.4147 12.4431 10.9648 11.8882 10.9648C11.3334 10.9648 10.8835 11.4147 10.8835 11.9695C10.8835 12.5244 11.3334 12.9742 11.8882 12.9742Z" fill="#D32A2A"/>
</svg>
