<svg width="92" height="71" viewBox="0 0 92 71" fill="none" xmlns="http://www.w3.org/2000/svg">
<path d="M37.5704 52.6503C51.553 73.3816 73.6751 66.9052 82.9884 61.0756C59.2077 79.8665 40.4196 65.5861 33.9982 56.0969C24.4043 41.9017 30.3409 26.1831 34.5085 20.0982C32.8755 4.88166 49.0525 2.09877 57.3451 2.6094C56.1969 3.67319 53.6708 7.02627 52.7522 11.9282C51.8337 16.8302 49.6478 19.8429 48.6697 20.7365C45.4037 24.4129 39.8243 24.0555 37.4428 23.4172C38.7696 18.0046 47.0963 9.33258 50.9661 5.80078C26.1649 20.7109 31.7018 43.2464 37.5704 52.6503Z" fill="#558241"/>
<path d="M60.8712 62.097C75.9495 62.097 88.173 49.8663 88.173 34.7788C88.173 24.5688 82.5754 15.6671 74.2833 10.9785C84.6336 14.862 92.0004 24.8531 92.0004 36.566C92.0004 51.6535 79.7769 63.8842 64.6986 63.8842C59.824 63.8842 55.2479 62.6059 51.2866 60.3662C54.2688 61.4852 57.4986 62.097 60.8712 62.097Z" fill="#92C544"/>
<path d="M48.756 52.0855C46.9573 49.2843 46.3979 48.8551 44.157 48.5563C40.9055 48.1228 41.0866 46.4165 44.401 46.2588C47.5579 46.1083 48.3358 46.4538 51.4059 49.3682C54.8492 52.6371 55.4617 52.8145 62.1037 52.4642C67.5052 52.1796 67.6083 52.2013 69.611 54.0561C71.9087 56.1843 71.5212 57.0763 69.0736 55.2933C66.8952 53.7063 64.2113 53.7609 59.8782 55.4805C54.8046 57.494 51.6012 56.5163 48.756 52.0857V52.0855ZM53.3162 48.3708C51.8606 46.6855 50.2616 40.4124 50.8182 38.5704C51.235 37.1903 51.5914 37.3496 52.6593 39.3937C53.1436 40.321 54.6505 41.6244 56.0078 42.2902C60.7305 44.607 62.0261 48.8047 58.3977 50.0338C56.2062 50.7762 55.0738 50.4056 53.3162 48.3708ZM63.2439 48.0281C63.8322 46.5168 64.1786 44.094 64.0295 42.5314C63.6928 39.0016 63.9411 38.2127 65.6909 37.2528C67.0133 36.5273 67.1328 36.5689 67.5907 37.9142C68.1731 39.6256 66.6266 45.0832 64.676 48.2006C62.7209 51.3251 61.9946 51.2378 63.2439 48.0281ZM44.1422 43.2913C42.1222 41.6246 41.5085 39.1515 42.1926 35.4358C42.5619 33.4306 42.5539 30.812 42.1748 29.6165C41.4209 27.2388 41.6962 27.0765 43.4524 28.8633C44.0872 29.509 45.5606 30.287 46.7266 30.5924C48.4529 31.0441 48.9194 31.5566 49.2375 33.3515C49.4524 34.564 49.461 36.1098 49.2565 36.7865C49.0522 37.4634 49.1503 39.5924 49.4747 41.5177C49.799 43.4431 49.8682 45.126 49.6281 45.2577C48.972 45.6176 45.4173 44.3433 44.1422 43.2911V43.2913ZM66.4761 48.0576C67.1271 46.7813 68.5479 45.2025 69.6335 44.5492C70.719 43.8959 72.3626 42.555 73.2858 41.5692C74.209 40.5835 75.6108 39.642 76.4012 39.4772C78.2355 39.0941 80.547 39.7823 80.2895 40.6347C80.1808 40.9946 79.7894 41.1976 79.4199 41.0855C79.0504 40.9735 77.8052 41.4468 76.6527 42.1372C75.0188 43.116 74.3429 44.1017 73.5844 46.6127C72.1884 51.2347 71.0725 52.1302 67.906 51.1703L65.2925 50.3781L66.4761 48.0576ZM60.7754 44.0954C60.3805 43.2382 58.634 41.553 56.8942 40.3503C55.1546 39.1476 53.2779 37.4811 52.724 36.6471C51.8421 35.3189 51.8935 34.7951 53.1389 32.431C54.7966 29.2839 56.6052 28.6808 55.7337 31.5658C54.945 34.1767 55.7069 35.8055 58.5365 37.5584C61.2722 39.253 62.3289 41.092 62.1784 43.8969C62.0564 46.1723 61.7518 46.2155 60.7754 44.0954ZM68.8403 40.5576C68.977 39.3219 68.6257 36.7238 68.0599 34.7839C66.7705 30.3637 67.5473 27.3698 70.3878 25.8115C73.1196 24.3131 73.9736 24.6666 72.832 26.8231C72.0789 28.2456 72.2201 29.2851 73.5971 32.4572C74.5261 34.5964 75.1967 36.6424 75.0876 37.0039C74.6325 38.5101 70.1512 43.2772 69.4034 43.0506C68.9571 42.9152 68.7037 41.7935 68.8403 40.5578V40.5576ZM60.8652 37.196C60.7414 36.9592 61.1698 35.5239 61.8173 34.0071C62.8609 31.5617 62.8429 31.0644 61.6591 29.6222C59.9764 27.5724 60.6214 26.9558 63.527 27.8367C65.5112 28.4382 65.8215 28.8434 66.0383 31.1145C66.1742 32.5396 66.2641 33.7766 66.2379 33.8631C66.0671 34.4281 61.0464 37.5426 60.8652 37.1958V37.196ZM57.8946 33.9283C56.9665 32.6046 56.9249 31.9197 57.6938 30.6209C59.0155 28.3883 61.0233 29.3903 60.0239 31.7838C59.6395 32.7043 59.5646 33.7341 59.8575 34.0721C60.4732 34.7826 60.246 35.9952 59.5414 35.7581C59.2794 35.6699 58.5382 34.8466 57.8944 33.9283H57.8946ZM51.6391 29.0915C52.6558 25.5423 52.7498 25.4418 56.7593 23.6169L60.8439 21.7578L63.3417 23.8261C66.2784 26.2575 65.9523 27.4241 62.6769 26.2044C60.7311 25.4799 60.1911 25.5712 59.272 26.7798C58.5288 27.7574 57.688 28.0674 56.641 27.75C55.4167 27.379 54.6427 27.8377 52.8527 29.9954L50.6031 32.7074L51.6389 29.0917L51.6391 29.0915Z" fill="#DD4949"/>
<path d="M19.1876 4.03606C24.8567 6.72073 29.538 16.2548 31.17 20.6862C32.2008 17.2873 32.9223 9.37959 27.5624 4.93955C22.2025 0.499514 16.3101 -0.180259 14.0338 0.0348588C15.1075 2.44416 16.4421 7.13369 16.4818 10.8767C16.524 14.8505 18.8716 22.4546 27.8512 21.641C28.127 21.616 28.3441 21.3891 28.3117 21.114C27.8859 17.507 22.1395 8.34853 19.1876 4.03606Z" fill="#92C446"/>
<path d="M6.49645 26.9077C12.4023 24.7949 22.4501 28.2243 26.7357 30.2031C25.0626 27.0705 19.9846 20.9683 13.0568 21.6211C6.12913 22.2738 1.48216 25.9622 0.0246341 27.7248C2.48646 28.6688 6.74415 31.0405 9.41741 33.6592C12.2554 36.4392 19.2892 40.1551 25.0638 33.2263C25.2411 33.0136 25.2341 32.6995 25.0167 32.5279C22.1665 30.2787 11.6312 27.8685 6.49645 26.9077Z" fill="#558241"/>
</svg>
