<svg width="16" height="14" viewBox="0 0 16 14" fill="none" xmlns="http://www.w3.org/2000/svg">
<path fill-rule="evenodd" clip-rule="evenodd" d="M0.300049 1.50039C0.300049 0.892877 0.792536 0.400391 1.40005 0.400391H14.6C15.2076 0.400391 15.7 0.892877 15.7 1.50039C15.7 2.1079 15.2076 2.60039 14.6 2.60039H1.40005C0.792536 2.60039 0.300049 2.1079 0.300049 1.50039Z" fill="white"/>
<path fill-rule="evenodd" clip-rule="evenodd" d="M0.300049 7.00039C0.300049 6.39288 0.792536 5.90039 1.40005 5.90039H14.6C15.2076 5.90039 15.7 6.39288 15.7 7.00039C15.7 7.6079 15.2076 8.10039 14.6 8.10039H1.40005C0.792536 8.10039 0.300049 7.6079 0.300049 7.00039Z" fill="white"/>
<path fill-rule="evenodd" clip-rule="evenodd" d="M0.300049 12.5004C0.300049 11.8929 0.792536 11.4004 1.40005 11.4004H8.00005C8.60756 11.4004 9.10005 11.8929 9.10005 12.5004C9.10005 13.1079 8.60756 13.6004 8.00005 13.6004H1.40005C0.792536 13.6004 0.300049 13.1079 0.300049 12.5004Z" fill="white"/>
</svg>
