<svg width="252" height="55" viewBox="0 0 252 55" fill="none" xmlns="http://www.w3.org/2000/svg">
<path d="M91.936 28.6C91.936 27.352 92.112 26.2 92.464 25.144C92.816 24.072 93.336 23.152 94.024 22.384C94.712 21.6 95.56 20.992 96.568 20.56C97.576 20.128 98.736 19.912 100.048 19.912C101.36 19.912 102.52 20.128 103.528 20.56C104.536 20.992 105.376 21.6 106.048 22.384C106.736 23.152 107.256 24.072 107.608 25.144C107.96 26.2 108.136 27.352 108.136 28.6C108.136 29.848 107.96 31.008 107.608 32.08C107.256 33.136 106.736 34.056 106.048 34.84C105.376 35.608 104.536 36.208 103.528 36.64C102.52 37.072 101.36 37.288 100.048 37.288C98.736 37.288 97.576 37.072 96.568 36.64C95.56 36.208 94.712 35.608 94.024 34.84C93.336 34.056 92.816 33.136 92.464 32.08C92.112 31.008 91.936 29.848 91.936 28.6ZM96.016 28.6C96.016 29.624 96.096 30.576 96.256 31.456C96.416 32.32 96.664 33.072 97 33.712C97.352 34.336 97.792 34.832 98.32 35.2C98.864 35.552 99.512 35.728 100.264 35.728C100.952 35.728 101.536 35.552 102.016 35.2C102.496 34.832 102.888 34.336 103.192 33.712C103.496 33.072 103.712 32.32 103.84 31.456C103.984 30.576 104.056 29.624 104.056 28.6C104.056 27.576 103.976 26.632 103.816 25.768C103.672 24.888 103.432 24.136 103.096 23.512C102.776 22.872 102.344 22.376 101.8 22.024C101.272 21.656 100.624 21.472 99.856 21.472C99.12 21.472 98.504 21.656 98.008 22.024C97.512 22.376 97.112 22.872 96.808 23.512C96.52 24.136 96.312 24.888 96.184 25.768C96.072 26.632 96.016 27.576 96.016 28.6ZM113.733 37H107.805V36.088C108.061 35.928 108.333 35.792 108.621 35.68C108.925 35.552 109.221 35.456 109.509 35.392L115.701 19.912H117.477L123.501 35.392C123.821 35.456 124.141 35.552 124.461 35.68C124.781 35.792 125.061 35.928 125.301 36.088V37H117.789V36.088C118.093 35.944 118.421 35.808 118.773 35.68C119.125 35.552 119.461 35.456 119.781 35.392L118.389 31.576H113.061L111.645 35.392C112.381 35.488 113.077 35.72 113.733 36.088V37ZM113.637 30.016H117.885L116.325 25.432L115.869 23.368H115.821L115.293 25.48L113.637 30.016ZM131.337 37.288C130.889 37.288 130.417 37.264 129.921 37.216C129.441 37.168 128.969 37.104 128.505 37.024C128.041 36.944 127.609 36.848 127.209 36.736C126.809 36.608 126.473 36.48 126.201 36.352C126.201 36.096 126.225 35.784 126.273 35.416C126.337 35.048 126.409 34.672 126.489 34.288C126.569 33.888 126.657 33.496 126.753 33.112C126.865 32.712 126.969 32.352 127.065 32.032H128.073L129.033 35.44C129.209 35.52 129.489 35.592 129.873 35.656C130.273 35.704 130.641 35.728 130.977 35.728C132.033 35.728 132.881 35.424 133.521 34.816C134.161 34.208 134.481 33.384 134.481 32.344C134.481 31.208 134.201 30.408 133.641 29.944C133.081 29.464 132.329 29.224 131.385 29.224L129.537 29.536C129.457 29.248 129.409 28.92 129.393 28.552C129.377 28.184 129.417 27.848 129.513 27.544H130.281C130.553 27.56 130.865 27.56 131.217 27.544C131.585 27.512 131.897 27.48 132.153 27.448C132.761 27.192 133.225 26.824 133.545 26.344C133.881 25.848 134.049 25.224 134.049 24.472C134.049 23.528 133.801 22.792 133.305 22.264C132.825 21.736 132.137 21.472 131.241 21.472C130.857 21.472 130.505 21.52 130.185 21.616C129.881 21.696 129.673 21.8 129.561 21.928L128.385 24.976H127.377C127.313 24.736 127.249 24.464 127.185 24.16C127.121 23.84 127.065 23.504 127.017 23.152C126.969 22.784 126.921 22.416 126.873 22.048C126.841 21.664 126.825 21.296 126.825 20.944C127.129 20.736 127.481 20.568 127.881 20.44C128.297 20.312 128.713 20.208 129.129 20.128C129.561 20.048 129.985 19.992 130.401 19.96C130.817 19.928 131.193 19.912 131.529 19.912C132.297 19.912 133.057 19.968 133.809 20.08C134.561 20.192 135.225 20.408 135.801 20.728C136.393 21.032 136.865 21.456 137.217 22C137.585 22.528 137.769 23.208 137.769 24.04C137.769 24.856 137.497 25.64 136.953 26.392C136.425 27.128 135.617 27.664 134.529 28V28.096C135.025 28.176 135.497 28.32 135.945 28.528C136.409 28.736 136.817 29.008 137.169 29.344C137.521 29.68 137.801 30.088 138.009 30.568C138.217 31.048 138.321 31.6 138.321 32.224C138.321 33.072 138.153 33.816 137.817 34.456C137.481 35.096 137.009 35.624 136.401 36.04C135.793 36.456 135.057 36.768 134.193 36.976C133.345 37.184 132.393 37.288 131.337 37.288ZM146.915 37H139.691V36.088C139.995 35.928 140.315 35.784 140.651 35.656C140.987 35.528 141.323 35.44 141.659 35.392V21.808C141.339 21.728 141.003 21.64 140.651 21.544C140.299 21.432 139.979 21.288 139.691 21.112V20.2H146.915V21.112C146.675 21.256 146.403 21.392 146.099 21.52C145.795 21.648 145.467 21.744 145.115 21.808V30.928L144.875 32.8L146.051 30.832L152.099 22.384V21.808C151.347 21.632 150.715 21.4 150.203 21.112V20.2H157.427V21.112C157.155 21.288 156.843 21.432 156.491 21.544C156.155 21.64 155.811 21.728 155.459 21.808V35.392C155.827 35.456 156.171 35.552 156.491 35.68C156.827 35.792 157.139 35.928 157.427 36.088V37H150.203V36.088C150.427 35.976 150.691 35.856 150.995 35.728C151.315 35.584 151.651 35.472 152.003 35.392V26.296L152.243 24.4L151.163 26.296L145.019 34.864V35.392C145.387 35.472 145.731 35.576 146.051 35.704C146.371 35.832 146.659 35.96 146.915 36.088V37ZM170.874 31.96H171.858C171.922 32.216 171.978 32.528 172.026 32.896C172.09 33.248 172.138 33.632 172.17 34.048C172.218 34.448 172.25 34.848 172.266 35.248C172.282 35.648 172.29 36.008 172.29 36.328C171.73 36.68 171.026 36.928 170.178 37.072C169.346 37.216 168.49 37.288 167.61 37.288C166.282 37.288 165.074 37.128 163.986 36.808C162.914 36.472 161.994 35.952 161.226 35.248C160.474 34.528 159.89 33.624 159.474 32.536C159.058 31.432 158.85 30.112 158.85 28.576C158.85 27.056 159.074 25.752 159.522 24.664C159.986 23.56 160.602 22.656 161.37 21.952C162.138 21.248 163.026 20.736 164.034 20.416C165.058 20.08 166.13 19.912 167.25 19.912C168.306 19.912 169.258 19.992 170.106 20.152C170.97 20.296 171.674 20.496 172.218 20.752C172.218 21.008 172.202 21.336 172.17 21.736C172.154 22.136 172.114 22.56 172.05 23.008C172.002 23.44 171.938 23.872 171.858 24.304C171.794 24.72 171.73 25.072 171.666 25.36H170.658L169.338 21.736C169.194 21.656 168.962 21.592 168.642 21.544C168.322 21.496 167.994 21.472 167.658 21.472C167.002 21.472 166.386 21.608 165.81 21.88C165.234 22.136 164.722 22.552 164.274 23.128C163.826 23.704 163.474 24.448 163.218 25.36C162.962 26.256 162.834 27.336 162.834 28.6C162.834 30.888 163.29 32.648 164.202 33.88C165.114 35.112 166.354 35.728 167.922 35.728C168.37 35.728 168.746 35.696 169.05 35.632C169.37 35.552 169.586 35.448 169.698 35.32L170.874 31.96ZM186.087 35.392C186.519 35.456 186.943 35.552 187.359 35.68C187.791 35.792 188.175 35.928 188.511 36.088V37H180.519V36.088C180.823 35.912 181.143 35.768 181.479 35.656C181.831 35.544 182.167 35.456 182.487 35.392V21.808C182.119 21.744 181.767 21.656 181.431 21.544C181.095 21.416 180.791 21.272 180.519 21.112V20.2H183.543C184.183 20.2 184.911 20.168 185.727 20.104C186.559 20.04 187.319 20.008 188.007 20.008C188.855 20.008 189.679 20.096 190.479 20.272C191.295 20.432 192.015 20.712 192.639 21.112C193.279 21.512 193.791 22.048 194.175 22.72C194.559 23.376 194.751 24.2 194.751 25.192C194.751 26.136 194.559 26.952 194.175 27.64C193.807 28.328 193.311 28.896 192.687 29.344C192.063 29.792 191.343 30.128 190.527 30.352C189.711 30.56 188.871 30.664 188.007 30.664C187.927 30.664 187.799 30.664 187.623 30.664C187.447 30.664 187.255 30.664 187.047 30.664C186.855 30.648 186.663 30.64 186.471 30.64C186.295 30.624 186.167 30.608 186.087 30.592V35.392ZM187.383 21.568C187.063 21.568 186.807 21.584 186.615 21.616C186.439 21.632 186.263 21.664 186.087 21.712V29.008C186.231 29.056 186.447 29.088 186.735 29.104C187.023 29.104 187.255 29.104 187.431 29.104C187.863 29.104 188.279 29.032 188.679 28.888C189.079 28.744 189.431 28.52 189.735 28.216C190.055 27.912 190.311 27.52 190.503 27.04C190.695 26.56 190.791 25.984 190.791 25.312C190.791 24.032 190.479 23.088 189.855 22.48C189.231 21.872 188.407 21.568 187.383 21.568ZM196.139 28.6C196.139 27.352 196.315 26.2 196.667 25.144C197.019 24.072 197.539 23.152 198.227 22.384C198.915 21.6 199.763 20.992 200.771 20.56C201.779 20.128 202.939 19.912 204.251 19.912C205.563 19.912 206.723 20.128 207.731 20.56C208.739 20.992 209.579 21.6 210.251 22.384C210.939 23.152 211.459 24.072 211.811 25.144C212.163 26.2 212.339 27.352 212.339 28.6C212.339 29.848 212.163 31.008 211.811 32.08C211.459 33.136 210.939 34.056 210.251 34.84C209.579 35.608 208.739 36.208 207.731 36.64C206.723 37.072 205.563 37.288 204.251 37.288C202.939 37.288 201.779 37.072 200.771 36.64C199.763 36.208 198.915 35.608 198.227 34.84C197.539 34.056 197.019 33.136 196.667 32.08C196.315 31.008 196.139 29.848 196.139 28.6ZM200.219 28.6C200.219 29.624 200.299 30.576 200.459 31.456C200.619 32.32 200.867 33.072 201.203 33.712C201.555 34.336 201.995 34.832 202.523 35.2C203.067 35.552 203.715 35.728 204.467 35.728C205.155 35.728 205.739 35.552 206.219 35.2C206.699 34.832 207.091 34.336 207.395 33.712C207.699 33.072 207.915 32.32 208.043 31.456C208.187 30.576 208.259 29.624 208.259 28.6C208.259 27.576 208.179 26.632 208.019 25.768C207.875 24.888 207.635 24.136 207.299 23.512C206.979 22.872 206.547 22.376 206.003 22.024C205.475 21.656 204.827 21.472 204.059 21.472C203.323 21.472 202.707 21.656 202.211 22.024C201.715 22.376 201.315 22.872 201.011 23.512C200.723 24.136 200.515 24.888 200.387 25.768C200.275 26.632 200.219 27.576 200.219 28.6ZM219.345 37.288C218.897 37.288 218.425 37.264 217.929 37.216C217.449 37.168 216.977 37.104 216.513 37.024C216.049 36.944 215.617 36.848 215.217 36.736C214.817 36.608 214.481 36.48 214.209 36.352C214.209 36.096 214.233 35.784 214.281 35.416C214.345 35.048 214.417 34.672 214.497 34.288C214.577 33.888 214.665 33.496 214.761 33.112C214.873 32.712 214.977 32.352 215.073 32.032H216.081L217.041 35.44C217.217 35.52 217.497 35.592 217.881 35.656C218.281 35.704 218.649 35.728 218.985 35.728C220.041 35.728 220.889 35.424 221.529 34.816C222.169 34.208 222.489 33.384 222.489 32.344C222.489 31.208 222.209 30.408 221.649 29.944C221.089 29.464 220.337 29.224 219.393 29.224L217.545 29.536C217.465 29.248 217.417 28.92 217.401 28.552C217.385 28.184 217.425 27.848 217.521 27.544H218.289C218.561 27.56 218.873 27.56 219.225 27.544C219.593 27.512 219.905 27.48 220.161 27.448C220.769 27.192 221.233 26.824 221.553 26.344C221.889 25.848 222.057 25.224 222.057 24.472C222.057 23.528 221.809 22.792 221.313 22.264C220.833 21.736 220.145 21.472 219.249 21.472C218.865 21.472 218.513 21.52 218.193 21.616C217.889 21.696 217.681 21.8 217.569 21.928L216.393 24.976H215.385C215.321 24.736 215.257 24.464 215.193 24.16C215.129 23.84 215.073 23.504 215.025 23.152C214.977 22.784 214.929 22.416 214.881 22.048C214.849 21.664 214.833 21.296 214.833 20.944C215.137 20.736 215.489 20.568 215.889 20.44C216.305 20.312 216.721 20.208 217.137 20.128C217.569 20.048 217.993 19.992 218.409 19.96C218.825 19.928 219.201 19.912 219.537 19.912C220.305 19.912 221.065 19.968 221.817 20.08C222.569 20.192 223.233 20.408 223.809 20.728C224.401 21.032 224.873 21.456 225.225 22C225.593 22.528 225.777 23.208 225.777 24.04C225.777 24.856 225.505 25.64 224.961 26.392C224.433 27.128 223.625 27.664 222.537 28V28.096C223.033 28.176 223.505 28.32 223.953 28.528C224.417 28.736 224.825 29.008 225.177 29.344C225.529 29.68 225.809 30.088 226.017 30.568C226.225 31.048 226.329 31.6 226.329 32.224C226.329 33.072 226.161 33.816 225.825 34.456C225.489 35.096 225.017 35.624 224.409 36.04C223.801 36.456 223.065 36.768 222.201 36.976C221.353 37.184 220.401 37.288 219.345 37.288Z" fill="white"/>
<path d="M29.4027 41.2039C40.3455 57.4283 57.6584 52.3599 64.947 47.7976C46.3361 62.5035 31.6325 51.3275 26.607 43.9013C19.0988 32.792 23.7448 20.4905 27.0064 15.7285C25.7284 3.81992 38.3886 1.64201 44.8784 2.04163C43.9798 2.87416 42.0029 5.4983 41.2841 9.33461C40.5652 13.1709 38.8545 15.5286 38.0891 16.228C35.5331 19.1052 31.1666 18.8255 29.3028 18.326C30.3412 14.09 36.8577 7.30323 39.8862 4.53922C20.4766 16.208 24.8098 33.8443 29.4027 41.2039Z" fill="white"/>
<path d="M47.6382 48.5974C59.4385 48.5974 69.0047 39.0256 69.0047 27.218C69.0047 19.2277 64.624 12.2611 58.1345 8.5918C66.2347 11.6311 72 19.4501 72 28.6167C72 40.4242 62.4338 49.9961 50.6335 49.9961C46.8186 49.9961 43.2373 48.9957 40.1372 47.2429C42.4711 48.1186 44.9987 48.5974 47.6382 48.5974Z" fill="white"/>
<path d="M38.1565 40.7619C36.7488 38.5697 36.3109 38.2338 34.5572 38C32.0126 37.6608 32.1543 36.3254 34.7482 36.202C37.2188 36.0842 37.8276 36.3546 40.2303 38.6354C42.925 41.1936 43.4043 41.3325 48.6024 41.0584C52.8296 40.8356 52.9104 40.8526 54.4776 42.3042C56.2759 43.9697 55.9726 44.6678 54.0571 43.2724C52.3522 42.0304 50.2518 42.0731 46.8607 43.4189C42.8901 44.9947 40.3831 44.2295 38.1565 40.7621V40.7619ZM41.7253 37.8548C40.5861 36.5359 39.3347 31.6266 39.7703 30.1849C40.0965 29.1049 40.3754 29.2296 41.2112 30.8293C41.5902 31.555 42.7695 32.575 43.8318 33.0961C47.5278 34.9093 48.5417 38.1944 45.7021 39.1563C43.987 39.7373 43.1008 39.4473 41.7253 37.8548ZM49.4947 37.5866C49.9552 36.4038 50.2262 34.5077 50.1096 33.2848C49.8461 30.5224 50.0404 29.905 51.4098 29.1538C52.4447 28.586 52.5382 28.6186 52.8966 29.6714C53.3524 31.0108 52.1421 35.2819 50.6155 37.7216C49.0854 40.1669 48.517 40.0985 49.4947 37.5866ZM34.5457 33.8796C32.9648 32.5752 32.4845 30.6397 33.0199 27.7318C33.3089 26.1626 33.3027 24.1132 33.006 23.1776C32.416 21.3168 32.6314 21.1898 34.0058 22.5881C34.5026 23.0935 35.6557 23.7024 36.5682 23.9413C37.9192 24.2949 38.2843 24.6959 38.5333 26.1006C38.7015 27.0496 38.7082 28.2593 38.5482 28.7889C38.3883 29.3186 38.465 30.9848 38.7189 32.4916C38.9727 33.9984 39.0268 35.3154 38.8389 35.4185C38.3255 35.7001 35.5436 34.7029 34.5457 33.8794V33.8796ZM52.0243 37.6097C52.5338 36.6109 53.6457 35.3753 54.4953 34.864C55.3448 34.3527 56.6311 33.3033 57.3536 32.5319C58.0761 31.7604 59.1732 31.0236 59.7917 30.8946C61.2273 30.5948 63.0363 31.1334 62.8347 31.8005C62.7497 32.0822 62.4433 32.2411 62.1542 32.1533C61.865 32.0656 60.8905 32.436 59.9886 32.9764C58.7098 33.7424 58.1809 34.5138 57.5873 36.479C56.4947 40.0961 55.6215 40.7969 53.1433 40.0457L51.098 39.4258L52.0243 37.6097ZM47.5629 34.5089C47.2538 33.838 45.887 32.5192 44.5254 31.5779C43.164 30.6367 41.6953 29.3324 41.2618 28.6798C40.5717 27.6403 40.6119 27.2304 41.5865 25.3802C42.8839 22.9173 44.2992 22.4453 43.6173 24.7031C43 26.7464 43.5963 28.0211 45.8107 29.3929C47.9517 30.7192 48.7786 32.1584 48.6609 34.3535C48.5654 36.1342 48.327 36.1681 47.5629 34.5089ZM53.8745 31.7402C53.9815 30.7731 53.7066 28.7398 53.2638 27.2216C52.2547 23.7624 52.8626 21.4193 55.0856 20.1998C57.2235 19.0271 57.8919 19.3038 56.9984 20.9915C56.409 22.1047 56.5196 22.9182 57.5972 25.4008C58.3242 27.0749 58.8491 28.6761 58.7637 28.959C58.4075 30.1378 54.9004 33.8685 54.3152 33.6912C53.966 33.5853 53.7676 32.7074 53.8745 31.7403V31.7402ZM47.6332 29.1094C47.5363 28.924 47.8716 27.8008 48.3783 26.6137C49.195 24.6999 49.1809 24.3107 48.2544 23.1821C46.9376 21.5779 47.4424 21.0953 49.7163 21.7847C51.2691 22.2554 51.512 22.5725 51.6816 24.3499C51.788 25.4653 51.8583 26.4333 51.8378 26.501C51.7042 26.9432 47.775 29.3806 47.6332 29.1092V29.1094ZM45.3083 26.5521C44.582 25.5161 44.5495 24.9801 45.1512 23.9636C46.1856 22.2164 47.7569 23.0006 46.9748 24.8737C46.6739 25.5941 46.6153 26.4001 46.8445 26.6646C47.3264 27.2206 47.1486 28.1696 46.5972 27.9841C46.3921 27.915 45.812 27.2707 45.3082 26.5521H45.3083ZM40.4127 22.7667C41.2085 19.9891 41.282 19.9104 44.4199 18.4823L47.6165 17.0273L49.5713 18.646C51.8696 20.5488 51.6144 21.4618 49.051 20.5073C47.5283 19.9403 47.1056 20.0117 46.3863 20.9576C45.8046 21.7226 45.1467 21.9653 44.3273 21.7168C43.3691 21.4265 42.7634 21.7855 41.3626 23.4741L39.602 25.5965L40.4126 22.7669L40.4127 22.7667Z" fill="white"/>
<path d="M15.0161 3.15864C19.4528 5.25968 23.1164 12.7211 24.3937 16.1891C25.2003 13.5292 25.765 7.34052 21.5703 3.86572C17.3756 0.390922 12.7642 -0.141072 10.9828 0.0272807C11.8231 1.91281 12.8675 5.58286 12.8986 8.51219C12.9315 11.6068 14.7508 17.5145 21.6929 16.9453C21.9689 16.9227 22.1833 16.6926 22.1427 16.4186C21.714 13.5266 17.2981 6.49239 15.0161 3.15864Z" fill="white"/>
<path d="M5.08416 21.0595C9.70613 19.406 17.5695 22.0899 20.9235 23.6385C19.6141 21.1869 15.64 16.4113 10.2184 16.9221C4.79669 17.433 1.15994 20.3195 0.0192787 21.699C1.94592 22.4377 5.27801 24.2939 7.37011 26.3432C9.58023 28.5081 15.0416 31.3983 19.5482 26.084C19.7273 25.8728 19.7162 25.5584 19.4938 25.3933C17.1468 23.6517 9.05359 21.8022 5.08416 21.0595Z" fill="white"/>
</svg>
