<svg width="18" height="18" viewBox="0 0 18 18" fill="none" xmlns="http://www.w3.org/2000/svg">
<path d="M10.3696 0H7.63043C7.30639 0 7.04346 0.262723 7.04346 0.586969V3.52174H10.9565V0.586969C10.9565 0.262723 10.6936 0 10.3696 0Z" fill="#44A60F"/>
<path d="M12.2363 6.6545C12.2004 6.6545 12.1659 6.65928 12.1304 6.6603V5.28228C12.1304 4.95804 11.8675 4.69531 11.5434 4.69531H6.4565C6.13246 4.69531 5.86953 4.95804 5.86953 5.28228V6.66034C5.83398 6.65932 5.7995 6.65454 5.76367 6.65454C3.61991 6.65454 1.94043 8.4538 1.94043 10.7508C1.94046 14.3423 5.40877 17.9997 7.49016 17.9997H10.5098C12.5947 17.9997 16.0595 14.3378 16.0595 10.7508C16.0595 8.4538 14.38 6.6545 12.2363 6.6545ZM14.8618 11.1569C13.0553 11.9169 11.0323 11.8756 9.25637 11.015C7.3161 10.0744 5.12165 9.95964 3.11781 10.6691C3.15483 9.04432 4.27853 7.82844 5.76367 7.82844C6.50347 7.82844 7.14317 8.14678 7.66517 8.77442C7.99377 9.16975 8.48065 9.39651 8.99994 9.39651C9.51924 9.39651 10.0061 9.16972 10.3347 8.77442C10.8567 8.14678 11.4964 7.82844 12.2362 7.82844C13.7464 7.82844 14.8856 9.08468 14.8856 10.7508C14.8856 10.8877 14.8723 11.022 14.8618 11.1569Z" fill="#44A60F"/>
</svg>
