<svg width="24" height="24" viewBox="0 0 24 24" fill="none" xmlns="http://www.w3.org/2000/svg">
<path fill-rule="evenodd" clip-rule="evenodd" d="M0 8C0 4.22876 0 2.34315 1.17157 1.17157C2.34315 0 4.22876 0 8 0H16C19.7712 0 21.6569 0 22.8284 1.17157C24 2.34315 24 4.22876 24 8V16C24 19.7712 24 21.6569 22.8284 22.8284C21.6569 24 19.7712 24 16 24H8C4.22876 24 2.34315 24 1.17157 22.8284C0 21.6569 0 19.7712 0 16V8ZM7.0095 17.4946C8.44158 16.3957 10.1962 15.8001 12.0013 15.8001C13.8064 15.8001 15.5611 16.3957 16.9932 17.4946C18.4253 18.5935 19.4547 20.1342 19.9219 21.8778C20.0649 22.4112 19.7483 22.9596 19.2148 23.1025C18.6814 23.2455 18.133 22.9289 17.9901 22.3954C17.6368 21.0771 16.8585 19.9122 15.7757 19.0813C14.6929 18.2504 13.3662 17.8001 12.0013 17.8001C10.6365 17.8001 9.30981 18.2504 8.22702 19.0813C7.14423 19.9121 6.36584 21.0771 6.0126 22.3954C5.86966 22.9289 5.32132 23.2455 4.78785 23.1025C4.25439 22.9596 3.93781 22.4112 4.08075 21.8778C4.54794 20.1342 5.57741 18.5935 7.0095 17.4946ZM9.40067 8.40008C9.40067 6.96414 10.5647 5.80008 12.0007 5.80008C13.4366 5.80008 14.6007 6.96414 14.6007 8.40008C14.6007 9.83602 13.4366 11.0001 12.0007 11.0001C10.5647 11.0001 9.40067 9.83602 9.40067 8.40008ZM12.0007 3.80008C9.46016 3.80008 7.40067 5.85957 7.40067 8.40008C7.40067 10.9406 9.46016 13.0001 12.0007 13.0001C14.5412 13.0001 16.6007 10.9406 16.6007 8.40008C16.6007 5.85957 14.5412 3.80008 12.0007 3.80008Z" fill="white"/>
</svg>
