<svg width="25" height="24" viewBox="0 0 25 24" fill="none" xmlns="http://www.w3.org/2000/svg">
<path d="M5.42142 2.31127L17.2268 7.31039L12.5 9.31145L0.7625 4.34056C1.02679 4.07411 1.35 3.85882 1.71786 3.71942L5.42142 2.31127ZM7.81071 1.40426L10.5786 0.352559C11.816 -0.11752 13.1858 -0.11752 14.4232 0.352559L23.2839 3.71942C23.65 3.86059 23.9732 4.07234 24.2375 4.34056L19.4946 6.34868L7.81071 1.40426ZM24.9893 5.94282L13.3928 10.8537V24C13.7449 23.9413 14.09 23.8479 14.4232 23.7212L23.2839 20.3526C23.7891 20.1604 24.2234 19.8214 24.5298 19.3804C24.8361 18.9394 25 18.417 25 17.8821V6.18986C25.0003 6.10735 24.9961 6.02489 24.9875 5.94282H24.9893ZM11.6071 24V10.8537L0.0124999 5.94282C0.00445262 6.02493 0.000281488 6.10737 0 6.18986V17.8821C7.1683e-05 18.4172 0.164272 18.9398 0.470948 19.3808C0.777623 19.8218 1.21237 20.1606 1.71786 20.3526L10.5768 23.7212C10.9125 23.8482 11.2571 23.9418 11.6071 24Z" fill="white"/>
</svg>
