<svg width="28" height="20" viewBox="0 0 28 20" fill="none" xmlns="http://www.w3.org/2000/svg">
<path d="M2.75 0C2.08696 0 1.45107 0.263392 0.982233 0.732233C0.513392 1.20107 0.25 1.83696 0.25 2.5V16.25H2.75C2.75 17.2446 3.14509 18.1984 3.84835 18.9017C4.55161 19.6049 5.50544 20 6.5 20C7.49456 20 8.44839 19.6049 9.15165 18.9017C9.85491 18.1984 10.25 17.2446 10.25 16.25H17.75C17.75 17.2446 18.1451 18.1984 18.8483 18.9017C19.5516 19.6049 20.5054 20 21.5 20C22.4946 20 23.4484 19.6049 24.1517 18.9017C24.8549 18.1984 25.25 17.2446 25.25 16.25H27.75V10L24 5H20.25V0H2.75ZM11.5 2.5L16.5 7.5L11.5 12.5V8.75H4V6.25H11.5V2.5ZM20.25 6.875H23.375L25.8375 10H20.25" fill="white"/>
</svg>
