<svg width="14" height="14" viewBox="0 0 14 14" fill="none" xmlns="http://www.w3.org/2000/svg">
<path d="M0 0.875C0 0.391751 0.391751 0 0.875 0H2.75876C3.1865 0 3.55154 0.309236 3.62186 0.731151L4.26876 4.61254C4.33191 4.99144 4.14055 5.36723 3.79697 5.53901L2.44235 6.21632C3.41911 8.64353 5.35647 10.5809 7.78368 11.5576L8.46099 10.203C8.63277 9.85945 9.00856 9.66809 9.38746 9.73124L13.2688 10.3781C13.6908 10.4485 14 10.8135 14 11.2412V13.125C14 13.6082 13.6082 14 13.125 14H11.375C5.09276 14 0 8.90724 0 2.625V0.875Z" fill="white"/>
</svg>
