<svg width="19" height="16" viewBox="0 0 19 16" fill="none" xmlns="http://www.w3.org/2000/svg">
<path fill-rule="evenodd" clip-rule="evenodd" d="M1.75868 6.89125C6.58953 4.78107 9.80549 3.37891 11.4204 2.69865C16.0166 0.768945 16.9827 0.435758 17.6039 0.421875C17.7419 0.421875 18.0455 0.449641 18.2526 0.616234C18.4182 0.755062 18.4596 0.935539 18.4872 1.07437C18.5148 1.21319 18.5424 1.50473 18.5148 1.72686C18.2664 4.36459 17.1898 10.7645 16.6377 13.7077C16.403 14.9571 15.9476 15.3736 15.5059 15.4153C14.5397 15.4986 13.8082 14.7767 12.8834 14.1658C11.4204 13.2079 10.606 12.611 9.18438 11.6669C7.54189 10.5841 8.60468 9.98711 9.54324 9.01532C9.79169 8.76543 14.029 4.87825 14.1118 4.53118C14.1256 4.48953 14.1256 4.32294 14.029 4.23964C13.9324 4.15634 13.7944 4.18411 13.684 4.21187C13.5321 4.23964 11.2133 5.79451 6.69994 8.86261C6.03743 9.32074 5.44393 9.54286 4.90563 9.52898C4.31213 9.5151 3.18033 9.19579 2.32458 8.91814C1.2894 8.58495 0.461255 8.40447 0.530267 7.8214C0.571674 7.51598 0.985746 7.21056 1.75868 6.89125Z" fill="#3B9C48"/>
</svg>
