<svg width="114" height="114" viewBox="0 0 114 114" fill="none" xmlns="http://www.w3.org/2000/svg">
<rect width="113.953" height="113.953" rx="16" fill="#7D3DAF"/>
<g clip-path="url(#clip0_486_2988)">
<path d="M77.2767 34.4528C75.8883 33.1811 70.265 29.0931 57.742 29.0394C57.742 29.0394 42.965 28.1551 35.7667 34.7608C31.7627 38.7648 30.3603 44.6284 30.1993 51.9014C30.0383 59.1744 29.8587 72.8058 42.9977 76.5111H43.0093L42.9977 82.1554C42.9977 82.1554 42.9113 84.4421 44.414 84.9018C46.2293 85.4711 47.3027 83.7304 49.041 81.8591C49.993 80.8301 51.3043 79.3228 52.3007 78.1724C53.7007 78.3101 55.3247 78.3871 56.9697 78.3871C61.2327 78.3871 65.3743 77.8621 69.3317 76.8728L68.9817 76.9474C70.797 76.3571 81.0683 75.0434 82.7297 61.4144C84.4657 47.3444 81.9037 38.4684 77.2767 34.4528V34.4528ZM78.798 60.3878C77.3817 71.7628 69.061 72.4861 67.5303 72.9761C64.189 73.8254 60.353 74.3108 56.4027 74.3108C55.2687 74.3108 54.144 74.2711 53.031 74.1918L53.1803 74.2011C53.1803 74.2011 47.4917 81.0588 45.7207 82.8414C45.142 83.4201 44.505 83.3734 44.5167 82.2184C44.5167 81.4648 44.561 72.8431 44.561 72.8431C33.438 69.7584 34.082 58.1478 34.2127 52.0834C34.3433 46.0191 35.482 41.0351 38.8723 37.6891C44.967 32.1661 57.5133 32.9851 57.5133 32.9851C68.1137 33.0294 73.1887 36.2238 74.3693 37.2948C78.2753 40.6431 80.2657 48.6511 78.798 60.3854V60.3878ZM63.6057 51.5491V51.5818C63.6057 51.9738 63.2883 52.2911 62.8963 52.2911C62.516 52.2911 62.2057 51.9924 62.1893 51.6168V51.6144C62.1987 51.5164 62.2057 51.3998 62.2057 51.2854C62.2057 49.4164 60.6913 47.9021 58.8223 47.9021C58.7523 47.9021 58.6823 47.9044 58.6147 47.9091H58.624C58.2483 47.8881 57.952 47.5801 57.952 47.2021C57.952 46.8101 58.2693 46.4928 58.6613 46.4928H58.701H58.6987C58.7453 46.4904 58.8037 46.4904 58.8597 46.4904C61.487 46.4904 63.615 48.6184 63.615 51.2458C63.615 51.3531 63.6103 51.4604 63.6033 51.5654V51.5514L63.6057 51.5491ZM65.8247 52.7881C65.9343 48.1494 63.0363 44.5188 57.5343 44.1128C57.1633 44.0871 56.874 43.7791 56.874 43.4058C56.874 43.0138 57.1913 42.6964 57.5833 42.6964C57.5997 42.6964 57.6183 42.6964 57.6347 42.6988H57.6323H57.672C62.9617 42.6988 67.2527 46.9874 67.2527 52.2794C67.2527 52.4684 67.248 52.6574 67.2363 52.8441L67.2387 52.8184C67.2293 53.2034 66.9167 53.5091 66.5317 53.5091C66.1397 53.5091 65.8223 53.1918 65.8223 52.7998C65.8223 52.7928 65.8223 52.7881 65.8223 52.7811L65.8247 52.7881ZM70.958 54.2558V54.2604C70.958 54.6524 70.6407 54.9698 70.2487 54.9698C69.8567 54.9698 69.544 54.6548 69.5417 54.2674C69.4857 45.3494 63.538 40.4938 56.3303 40.4424C55.9383 40.4424 55.6233 40.1251 55.6233 39.7354C55.6233 39.3458 55.9407 39.0284 56.3303 39.0284C64.4013 39.0844 70.888 44.6541 70.9533 54.2534L70.958 54.2558ZM69.733 64.9844V65.0054C68.5523 67.0844 66.3427 69.3804 64.0677 68.6478L64.0467 68.6151C59.772 67.0191 56.076 64.9331 52.7743 62.3641L52.87 62.4341C51.1363 61.0528 49.6127 59.5291 48.2757 57.8538L48.2313 57.7954C47.0437 56.3068 45.9307 54.6408 44.96 52.8814L44.8667 52.6971C43.8003 50.9564 42.8367 48.9451 42.083 46.8334L42.013 46.6048C41.2803 44.3298 43.5647 42.1201 45.6553 40.9394H45.6763C45.9797 40.7458 46.3483 40.6291 46.745 40.6291C47.368 40.6291 47.9233 40.9161 48.2897 41.3618L48.292 41.3664C48.292 41.3664 49.6477 42.9834 50.2287 43.7838C50.7747 44.5281 51.5097 45.7204 51.89 46.3854C52.1093 46.7284 52.2377 47.1484 52.2377 47.5988C52.2377 48.2708 51.9483 48.8751 51.4863 49.2928L51.484 49.2951L50.1727 50.3451C49.811 50.6951 49.587 51.1851 49.587 51.7264C49.587 51.7801 49.5893 51.8314 49.594 51.8828V51.8758C50.945 56.3161 54.3727 59.7438 58.7173 61.0714L58.8153 61.0971C58.8597 61.1018 58.9133 61.1041 58.9647 61.1041C59.506 61.1041 59.996 60.8801 60.346 60.5208L61.396 59.2094C61.816 58.7451 62.4203 58.4558 63.0923 58.4558C63.5427 58.4558 63.9603 58.5864 64.315 58.8104L64.3057 58.8058C66.2027 59.8861 67.843 61.0738 69.3387 62.4201L69.313 62.3968C69.761 62.7561 70.0433 63.3044 70.0433 63.9181C70.0433 64.3124 69.9267 64.6788 69.7237 64.9868L69.7283 64.9798L69.733 64.9844Z" fill="white"/>
</g>
<defs>
<clipPath id="clip0_486_2988">
<rect width="56" height="56" fill="white" transform="translate(29 29)"/>
</clipPath>
</defs>
</svg>
