<svg width="20" height="20" viewBox="0 0 20 20" fill="none" xmlns="http://www.w3.org/2000/svg">
<circle cx="9.99996" cy="10.8333" r="2.33333" stroke="#09A98C" stroke-width="2"/>
<path d="M10 7.50065V5.83398M10 3.33398V5.83398M10 5.83398L7.5 4.16732M10 5.83398L12.5 4.16732" stroke="#09A98C" stroke-width="2" stroke-linecap="round"/>
<path d="M12.9167 10.416L14.5834 10.416M17.0834 10.416L14.5834 10.416M14.5834 10.416L16.25 7.91602M14.5834 10.416L16.25 12.916" stroke="#09A98C" stroke-width="2" stroke-linecap="round"/>
<path d="M10 13.3333V15M10 17.5V15M10 15L7.5 16.6667M10 15L12.5 16.6667" stroke="#09A98C" stroke-width="2" stroke-linecap="round"/>
<path d="M7.08329 10.416L5.41663 10.416M2.91663 10.416L5.41663 10.416M5.41663 10.416L3.74996 7.91602M5.41663 10.416L3.74996 12.916" stroke="#09A98C" stroke-width="2" stroke-linecap="round"/>
</svg>
