<svg width="114" height="114" viewBox="0 0 114 114" fill="none" xmlns="http://www.w3.org/2000/svg">
<rect width="113.953" height="113.953" rx="16" fill="#26D044"/>
<path fill-rule="evenodd" clip-rule="evenodd" d="M76.8406 37.1383C71.5763 31.8931 64.5755 29.0032 57.1168 29C41.7482 29 29.2398 41.4477 29.2337 56.7477C29.2318 61.6384 30.5155 66.4121 32.9556 70.6206L29 85L43.7811 81.1412C47.8537 83.3519 52.439 84.5173 57.1056 84.5189H57.1171C72.4841 84.5189 84.9936 72.0696 85 56.7693C85.0027 49.3551 82.1048 42.3833 76.8406 37.1383ZM57.1171 79.8325H57.1077C52.9493 79.8309 48.8705 78.7189 45.3124 76.6174L44.466 76.1179L35.6947 78.4076L38.0359 69.8965L37.4848 69.0235C35.1651 65.3516 33.9397 61.1073 33.9415 56.749C33.9466 44.0324 44.3429 33.6867 57.1265 33.6867C63.3163 33.6888 69.1353 36.0909 73.5108 40.4508C77.8863 44.8104 80.2943 50.6051 80.2919 56.768C80.2868 69.4856 69.8905 79.8325 57.1171 79.8325ZM69.8291 62.5581C69.1324 62.2113 65.7074 60.5338 65.0686 60.3024C64.4301 60.0714 63.9655 59.9555 63.5011 60.6497C63.0367 61.3439 61.7013 62.9055 61.2949 63.3684C60.8884 63.8309 60.482 63.8891 59.7856 63.5417C59.0886 63.1949 56.844 62.4626 54.1828 60.1003C52.1117 58.2618 50.7135 55.9913 50.3071 55.2969C49.9006 54.6027 50.2636 54.2276 50.6126 53.8819C50.926 53.5711 51.3093 53.0718 51.6578 52.6671C52.0063 52.2623 52.1222 51.9729 52.3545 51.5102C52.5868 51.0475 52.4707 50.6425 52.2963 50.2957C52.1222 49.9483 50.7288 46.5354 50.1483 45.1471C49.5827 43.7954 49.0084 43.9782 48.5808 43.9569C48.1749 43.9369 47.7099 43.9323 47.2453 43.9323C46.7809 43.9323 46.0263 44.1059 45.3875 44.8C44.7491 45.4942 42.9492 47.1717 42.9492 50.5846C42.9492 53.9975 45.4455 57.2942 45.794 57.7572C46.1422 58.2199 50.7068 65.2232 57.6955 68.2268C59.3574 68.9413 60.6553 69.3676 61.6672 69.6875C63.3364 70.2153 64.8551 70.1406 66.0553 69.9622C67.394 69.7631 70.1773 68.2847 70.7578 66.6652C71.3384 65.0454 71.3384 63.6571 71.1642 63.3679C70.9901 63.079 70.5258 62.9055 69.8291 62.5581Z" fill="white"/>
</svg>
