<svg width="18" height="18" viewBox="0 0 18 18" fill="none" xmlns="http://www.w3.org/2000/svg">
<path fill-rule="evenodd" clip-rule="evenodd" d="M15.3773 2.61588C13.6852 0.929915 11.435 0.00102981 9.03755 0C4.09763 0 0.0770895 4.00106 0.0751062 8.9189C0.0745026 10.4909 0.487111 12.0253 1.27146 13.3781L0 18L4.75108 16.7597C6.06013 17.4703 7.53397 17.8448 9.03393 17.8454H9.03764C13.977 17.8454 17.9979 13.8438 18 8.92585C18.0009 6.54271 17.0694 4.30176 15.3773 2.61588ZM9.03764 16.339H9.03462C7.69798 16.3385 6.38694 15.9811 5.24328 15.3056L4.97122 15.145L2.15186 15.881L2.90439 13.1453L2.72727 12.8647C1.98164 11.6844 1.58775 10.3202 1.58835 8.91933C1.58999 4.83186 4.93164 1.50644 9.04066 1.50644C11.0302 1.50712 12.9006 2.27922 14.307 3.68062C15.7134 5.08193 16.4874 6.9445 16.4867 8.92542C16.485 13.0132 13.1434 16.339 9.03764 16.339ZM13.1236 10.7865C12.8997 10.6751 11.7988 10.1359 11.5935 10.0615C11.3883 9.98724 11.2389 9.95 11.0896 10.1731C10.9404 10.3962 10.5111 10.8982 10.3805 11.047C10.2499 11.1956 10.1192 11.2143 9.89536 11.1027C9.67134 10.9912 8.94986 10.7558 8.09446 9.99651C7.42877 9.40557 6.97934 8.67578 6.8487 8.45257C6.71806 8.22945 6.83473 8.10887 6.94692 7.99774C7.04763 7.89785 7.17085 7.73737 7.28287 7.60727C7.39488 7.47717 7.43213 7.38415 7.50681 7.23543C7.58148 7.0867 7.54414 6.95652 7.48809 6.84504C7.43213 6.73339 6.98425 5.63639 6.79765 5.19014C6.61588 4.75565 6.43126 4.81443 6.29381 4.80757C6.16335 4.80113 6.01391 4.79967 5.86456 4.79967C5.7153 4.79967 5.47273 4.85546 5.26742 5.07858C5.0622 5.30171 4.48368 5.8409 4.48368 6.9379C4.48368 8.0349 5.28605 9.09457 5.39806 9.24338C5.50999 9.3921 6.97718 11.6432 9.22355 12.6086C9.75774 12.8383 10.1749 12.9753 10.5002 13.0781C11.0367 13.2478 11.5248 13.2238 11.9106 13.1664C12.3409 13.1024 13.2356 12.6272 13.4222 12.1067C13.6088 11.586 13.6088 11.1398 13.5528 11.0468C13.4968 10.954 13.3476 10.8982 13.1236 10.7865Z" fill="#3B9C48"/>
</svg>
