<svg width="36" height="36" viewBox="0 0 36 36" fill="none" xmlns="http://www.w3.org/2000/svg">
<rect width="36" height="36" rx="8" fill="#F40000"/>
<g clip-path="url(#clip0_107_1178)">
<path d="M26.625 13.8801C26.5231 13.5165 26.3245 13.1873 26.0505 12.9276C25.7687 12.6598 25.4233 12.4683 25.047 12.3711C23.6385 11.9998 17.9955 11.9998 17.9955 11.9998C15.643 11.973 13.291 12.0908 10.953 12.3523C10.5766 12.4567 10.2319 12.6525 9.94947 12.9223C9.67197 13.1893 9.47097 13.5186 9.36597 13.8793C9.11374 15.2381 8.99119 16.6178 8.99997 17.9998C8.99097 19.3806 9.11322 20.7598 9.36597 22.1203C9.46872 22.4796 9.66897 22.8073 9.94722 23.0721C10.2255 23.3368 10.572 23.5281 10.953 23.6293C12.3802 23.9998 17.9955 23.9998 17.9955 23.9998C20.351 24.0266 22.7059 23.9089 25.047 23.6473C25.4233 23.5501 25.7687 23.3586 26.0505 23.0908C26.3244 22.8311 26.5227 22.5019 26.6242 22.1383C26.883 20.78 27.0089 19.3998 27 18.0171C27.0194 16.6285 26.8938 15.2417 26.625 13.8793V13.8801ZM16.2015 20.5678V15.4326L20.8965 18.0006L16.2015 20.5678Z" fill="white"/>
</g>
<defs>
<clipPath id="clip0_107_1178">
<rect width="18" height="18" fill="white" transform="translate(9 9)"/>
</clipPath>
</defs>
</svg>
