<svg width="36" height="36" viewBox="0 0 36 36" fill="none" xmlns="http://www.w3.org/2000/svg">
<rect width="36" height="36" rx="8" fill="#FE0000"/>
<path d="M19.6542 27.045C18.4845 26.5887 17.3156 26.1312 16.1451 25.6768C14.824 25.1639 13.5022 24.6526 12.1784 24.1459C12.0513 24.0972 12.0029 24.0394 12.0037 23.8971C12.0103 22.6767 12.0068 21.4562 12.0096 20.2358C12.0096 20.1781 11.9721 20.1059 12.0454 20.0611C12.2089 20.0322 12.3501 20.1071 12.4932 20.1633C13.6056 20.6005 14.7219 21.028 15.8335 21.4672C15.9481 21.5124 16.0644 21.5545 16.1794 21.5994C16.2652 21.6329 16.3463 21.6735 16.3865 21.7648C18.2091 22.4738 20.0318 23.1825 21.854 23.8928C22.5116 24.149 23.1665 24.4127 23.8256 24.6658C23.9473 24.7126 23.9863 24.7739 23.9856 24.9065C23.9793 26.1144 23.9832 27.3227 23.9766 28.5307C23.9762 28.5767 24.062 28.698 23.9075 28.691C23.7617 28.7463 23.6408 28.6598 23.5179 28.6122C22.3977 28.1792 21.2772 27.7467 20.1574 27.3114C20.0485 27.2689 19.9374 27.2326 19.8297 27.187C19.758 27.1566 19.6843 27.1273 19.6542 27.045Z" fill="#FEFEFE"/>
<path d="M19.6812 13.743C17.4408 12.876 15.2001 12.0093 12.9597 11.1423C12.682 11.0346 12.4063 10.9223 12.1262 10.8205C12.04 10.7893 12.0049 10.7515 12.0049 10.6555C12.0081 9.38869 12.0069 8.12225 12.0077 6.85542C12.0077 6.81876 11.9971 6.77546 12.0455 6.75596C12.1524 6.73607 12.2503 6.76922 12.3478 6.80706C13.4426 7.23375 14.5363 7.66435 15.6307 8.09339C15.8362 8.17412 16.0453 8.24589 16.2481 8.33248C16.3242 8.36485 16.4111 8.38591 16.4459 8.4764C17.2509 8.79623 18.0547 9.11879 18.8613 9.43471C20.5065 10.079 22.1528 10.721 23.8003 11.3595C23.931 11.4102 23.9864 11.4687 23.9856 11.6205C23.9778 12.8214 23.9817 14.0223 23.9797 15.2232C23.9797 15.2899 24.0125 15.3667 23.9442 15.4233C23.851 15.4354 23.766 15.4073 23.6802 15.3741C22.4216 14.8885 21.1645 14.3994 19.9054 13.9154C19.8138 13.8803 19.7241 13.8417 19.6812 13.743Z" fill="#FEFEFE"/>
<path d="M19.6813 13.7422C21.0101 14.2582 22.3389 14.7738 23.6674 15.291C23.7626 15.3281 23.8679 15.3456 23.9443 15.4225C23.52 15.8238 23.057 16.1795 22.6092 16.5528C20.5795 18.2447 18.5463 19.9324 16.515 21.622C16.4658 21.6626 16.4058 21.695 16.3859 21.7628C14.9615 21.2067 13.5375 20.6509 12.1131 20.0943C12.0893 20.0849 12.0674 20.0709 12.0448 20.0588C14.5554 17.9908 17.0661 15.9229 19.5763 13.8541C19.6157 13.8221 19.6465 13.7796 19.6813 13.7422Z" fill="#FEB1B1"/>
</svg>
