<?xml version="1.0" standalone="no"?>
<!DOCTYPE svg PUBLIC "-//W3C//DTD SVG 20010904//EN"
 "http://www.w3.org/TR/2001/REC-SVG-20010904/DTD/svg10.dtd">
<svg version="1.0" xmlns="http://www.w3.org/2000/svg"
 width="260.000000pt" height="260.000000pt" viewBox="0 0 260.000000 260.000000"
 preserveAspectRatio="xMidYMid meet">
<metadata>
Created by potrace 1.14, written by Peter Selinger 2001-2017
</metadata>
<g transform="translate(0.000000,260.000000) scale(0.100000,-0.100000)"
fill="#000000" stroke="none">
<path d="M480 2125 c22 -63 36 -139 45 -235 13 -149 100 -244 230 -251 62 -4
68 -1 61 29 -12 47 -70 162 -137 272 -36 58 -69 111 -73 118 -7 11 -4 12 12 3
33 -18 107 -96 146 -156 41 -61 116 -208 116 -227 0 -9 3 -9 12 0 20 20 16
187 -5 249 -43 123 -207 235 -369 250 l-58 5 20 -57z"/>
<path d="M1427 2114 c-1 -1 -22 -4 -47 -7 -130 -17 -230 -59 -306 -129 -61
-56 -94 -128 -100 -219 -5 -58 -14 -91 -45 -155 -64 -135 -91 -241 -95 -379
-3 -101 1 -134 20 -211 28 -106 66 -185 130 -270 104 -138 264 -250 425 -296
59 -17 74 -19 161 -25 149 -9 317 36 468 127 70 42 134 89 97 72 -108 -51
-205 -85 -275 -97 -19 -3 -48 -8 -64 -11 -45 -10 -187 -7 -252 5 -277 51 -513
277 -589 566 -92 349 30 668 342 891 34 24 63 44 66 44 2 0 -22 -26 -52 -57
-88 -90 -148 -162 -197 -235 -45 -67 -71 -124 -61 -135 12 -11 124 -10 167 3
95 28 173 130 205 267 21 93 41 143 75 193 16 25 30 49 30 53 0 7 -96 11 -103
5z"/>
<path d="M2010 1883 c13 -10 51 -43 83 -73 313 -291 287 -793 -53 -1047 -126
-94 -278 -142 -430 -137 -62 3 -77 4 -145 18 -24 5 -22 2 14 -15 69 -33 157
-48 266 -44 112 4 126 6 210 35 213 73 379 259 440 492 13 51 14 247 1 301
-36 155 -153 327 -276 410 -47 32 -142 83 -110 60z"/>
<path d="M345 1622 c-33 -10 -81 -29 -107 -42 -50 -25 -118 -76 -118 -89 0 -4
25 -21 56 -37 31 -16 86 -53 122 -81 131 -103 172 -123 251 -123 25 0 64 9 86
19 44 20 105 72 105 88 0 19 -135 71 -279 107 -79 20 -153 36 -165 36 -17 0
-18 2 -6 10 8 5 64 8 125 6 96 -3 126 -9 230 -44 66 -22 122 -38 124 -36 6 5
-41 64 -85 107 -88 86 -216 116 -339 79z"/>
<path d="M1535 1591 c-44 -21 -88 -47 -98 -59 -16 -17 -57 -130 -57 -156 0 -6
12 5 28 23 48 59 57 68 79 80 13 6 33 9 47 5 17 -4 32 2 57 24 33 29 35 29 79
16 25 -8 51 -14 58 -14 18 0 15 27 -6 48 -47 44 -83 72 -94 72 -7 0 -49 -18
-93 -39z"/>
<path d="M1879 1537 c-77 -41 -97 -105 -69 -223 9 -39 18 -100 19 -135 1 -35
6 -68 11 -73 10 -10 116 87 136 126 13 24 12 34 -12 95 -41 107 -50 151 -36
174 14 22 16 46 3 53 -5 3 -28 -5 -52 -17z"/>
<path d="M1157 1484 c-3 -3 -1 -18 5 -33 6 -16 7 -71 3 -147 -6 -102 -4 -128
9 -156 21 -44 59 -72 124 -92 55 -16 56 -15 53 34 -1 14 -3 77 -5 141 -2 63
-7 125 -11 138 -4 14 -26 31 -63 47 -31 14 -69 36 -83 50 -14 13 -28 22 -32
18z"/>
<path d="M1630 1478 c0 -7 9 -24 20 -38 25 -32 25 -62 0 -129 -12 -29 -19 -56
-16 -58 6 -6 91 41 117 64 16 14 18 62 4 121 -9 37 -125 74 -125 40z"/>
<path d="M1467 1408 c-63 -84 -66 -117 -18 -167 20 -21 54 -51 76 -67 68 -50
76 -58 102 -98 29 -45 43 -36 37 27 -6 60 -23 87 -88 136 -70 53 -87 87 -73
143 14 56 -3 69 -36 26z"/>
<path d="M1556 1418 c-9 -12 -16 -32 -16 -44 0 -20 32 -70 54 -86 16 -11 26
13 15 34 -6 12 -6 31 0 54 5 19 7 42 4 50 -8 21 -40 17 -57 -8z"/>
<path d="M1755 1248 c-38 -20 -45 -40 -45 -124 0 -53 -7 -104 -19 -144 -22
-70 -11 -75 31 -14 41 60 80 182 76 239 -3 52 -12 61 -43 43z"/>
<path d="M1384 1218 c-20 -61 23 -211 75 -264 33 -33 40 -35 79 -31 119 13
107 114 -23 195 -39 25 -74 56 -90 81 -14 23 -27 41 -29 41 -3 0 -8 -10 -12
-22z"/>
<path d="M2035 1192 c-29 -3 -66 -27 -110 -69 -11 -11 -39 -33 -62 -50 -58
-41 -113 -113 -113 -146 0 -17 92 -41 124 -33 29 7 48 35 71 106 29 91 63 124
159 154 14 5 16 9 7 20 -14 17 -37 22 -76 18z"/>
<path d="M1167 1009 c-25 -15 -6 -35 41 -44 50 -9 86 -32 107 -67 31 -53 79
-101 118 -118 46 -21 88 -17 190 16 101 34 154 33 213 -1 25 -15 48 -24 52
-21 3 4 -13 26 -36 49 l-42 42 -153 1 c-170 0 -180 3 -257 74 -72 67 -99 80
-160 80 -30 0 -63 -5 -73 -11z"/>
</g>
</svg>
