<svg width="24" height="24" viewBox="0 0 24 24" fill="none" xmlns="http://www.w3.org/2000/svg">
<g clip-path="url(#clip0_1004_16850)">
<path d="M22.9458 23.1535C22.8261 23.1535 22.7063 23.1086 22.6138 23.0184L9.47759 10.2105C9.28948 10.0271 9.28568 9.72591 9.4691 9.53794C9.65253 9.34978 9.95365 9.34599 10.1418 9.52936L23.2779 22.3373C23.466 22.5207 23.4698 22.8219 23.2864 23.0099C23.1933 23.1055 23.0696 23.1535 22.9458 23.1535Z" fill="#FFA81E"/>
<path d="M23.9903 9.01786C23.4626 9.03309 22.7941 9.10012 22.0438 9.29597C21.1769 9.52219 20.4822 9.84689 19.978 10.1302C20.2118 8.20219 20.2163 7.6672 20.2163 7.6672C20.2257 6.56794 20.0029 5.73919 19.8589 5.2042C19.1427 2.54184 17.2302 0.601734 16.6013 0C15.9795 0.545297 15.2056 1.33833 14.4958 2.4233C13.5791 3.82486 13.1344 5.15559 12.9067 6.07805C12.8906 6.06131 11.5047 4.38966 10.0067 3.25744C8.98517 2.48569 8.08709 2.097 7.26556 1.74787C5.95789 1.19227 3.61039 0.397781 0.365984 0.358406C0.402828 3.61153 1.19919 5.96466 1.75578 7.27467C2.10491 8.09611 2.49345 8.99419 3.26534 10.0157C4.39752 11.5137 6.06913 12.8997 6.08595 12.9158C5.1635 13.1435 3.83267 13.5882 2.43106 14.5049C1.34614 15.2145 0.553109 15.9885 0.0078125 16.6102C0.609688 17.2392 2.54966 19.1517 5.21197 19.8678C5.74705 20.0118 6.57566 20.2347 7.67497 20.2254C7.67497 20.2254 8.21005 20.2209 10.138 19.987C9.85456 20.4912 9.52995 21.186 9.30373 22.0528C9.10789 22.803 9.04086 23.4716 9.02563 23.9993C9.76948 24.0083 12.1988 23.9423 14.1106 22.1719C15.1633 21.1971 15.6478 20.0865 15.8585 19.5897C16.265 18.6316 16.3775 17.8156 16.4805 16.4714C17.8139 16.3687 18.6268 16.2555 19.5806 15.8508C20.0773 15.64 21.1879 15.1555 22.1628 14.1028C23.9334 12.1909 23.9995 9.76186 23.9903 9.01786Z" fill="#FFD92D"/>
<path d="M11.2627 22.3721C11.2788 21.8136 11.3497 21.1061 11.557 20.3122C11.7964 19.395 12.1399 18.6597 12.4399 18.1263C10.3997 18.3737 9.83352 18.3785 9.83352 18.3785C8.67017 18.3884 7.79338 18.1525 7.22717 18.0002C4.71697 17.3249 2.81459 15.6454 1.979 14.8164C1.1225 15.4354 0.474219 16.0785 0.0078125 16.6103C0.609688 17.2392 2.54966 19.1517 5.21197 19.8678C5.74705 20.0118 6.57566 20.2347 7.67497 20.2254C7.67497 20.2254 8.21005 20.2209 10.138 19.987C9.85456 20.4912 9.52995 21.186 9.30373 22.0528C9.10789 22.8031 9.04086 23.4716 9.02563 23.9994C9.76948 24.0084 12.1988 23.9424 14.1106 22.1719C14.2474 22.0452 14.3741 21.9162 14.4924 21.7867C13.0853 22.3494 11.7836 22.3784 11.2627 22.3721Z" fill="#FFE571"/>
<path d="M22.0442 9.29602C21.1773 9.52223 20.4825 9.84684 19.9783 10.1302C20.2121 8.20237 20.2166 7.66725 20.2166 7.66725C20.2259 6.56789 20.0032 5.73923 19.8593 5.20425C19.1431 2.54198 17.2306 0.601875 16.6016 0C15.9798 0.545297 15.206 1.33823 14.496 2.4233C13.5794 3.82491 13.1346 5.15573 12.907 6.07805C12.8909 6.06131 11.5051 4.3898 10.007 3.25753C8.98553 2.48564 8.08736 2.09709 7.26592 1.74797C5.95853 1.1925 3.61042 0.399422 0.367188 0.359672C0.404406 3.61153 1.19973 5.96494 1.75628 7.27458C1.84558 7.48533 1.93862 7.70142 2.03894 7.92295C1.98573 7.43062 1.94837 6.91191 1.94209 6.35423C1.94223 6.35456 1.94205 6.35438 1.94209 6.35423C4.61303 6.387 6.54672 7.04016 7.62372 7.49766C8.30017 7.78519 9.03967 8.10525 9.88089 8.74092C10.2777 9.04078 10.6649 9.38663 11.0081 9.71831C11.5795 10.2703 12.5267 10.0981 12.8537 9.3742C13.0434 8.95444 13.2805 8.5087 13.5781 8.05392C13.853 7.6335 14.1397 7.26637 14.4195 6.94861C14.8903 6.41405 15.7247 6.4418 16.1799 6.98977C16.8305 7.77291 17.6158 8.93578 17.9946 10.344C18.1133 10.7847 18.2966 11.4671 18.2892 12.3725C18.2892 12.3725 18.2888 12.4178 18.2819 12.5315C18.2332 13.3389 18.9905 13.9262 19.7725 13.7193C19.7797 13.7175 19.7867 13.7156 19.7939 13.7138C20.412 13.5525 20.9623 13.4973 21.3971 13.4847C21.4003 13.7483 21.3845 14.2758 21.2581 14.9088C21.5585 14.6854 21.8666 14.4232 22.1632 14.1029C23.9337 12.1911 23.9997 9.76191 23.9906 9.01795C23.4629 9.03314 22.7945 9.10017 22.0442 9.29602Z" fill="#FFA81E"/>
</g>
<defs>
<clipPath id="clip0_1004_16850">
<rect width="24" height="24" fill="white"/>
</clipPath>
</defs>
</svg>
