<svg width="24" height="24" viewBox="0 0 24 24" fill="none" xmlns="http://www.w3.org/2000/svg">
<g clip-path="url(#clip0_1004_16862)">
<path d="M23.9576 10.401C23.8742 10.1558 23.676 9.96793 23.4307 9.9001L22.0743 9.50359L22.9873 8.35061C23.149 8.14712 23.1959 7.88106 23.1229 7.63586C23.0446 7.38545 22.8516 7.19242 22.6064 7.11935C20.9212 6.58718 18.9126 6.14374 16.7631 6.83763C16.5701 6.90546 16.3719 6.97849 16.1788 7.06202C16.1997 6.84813 16.2102 6.64464 16.2102 6.43596C16.2102 4.18217 15.1615 2.40833 14.1389 0.968385C13.9876 0.759698 13.732 0.629292 13.4868 0.639745C13.2311 0.644901 12.9912 0.775354 12.8503 0.989291L11.9999 2.2049L11.2225 0.989291C11.0816 0.775401 10.8416 0.644948 10.586 0.639745C10.3303 0.629292 10.0851 0.759745 9.93386 0.968385C8.91129 2.40833 7.86265 4.18217 7.86265 6.43596C7.86265 6.63944 7.8731 6.84813 7.88866 7.05156C7.69563 6.97333 7.4974 6.90025 7.29912 6.83767C5.12361 6.13858 3.042 6.61853 1.46639 7.11939C1.22119 7.19763 1.03332 7.3907 0.955128 7.63591C0.88205 7.88111 0.934269 8.15242 1.09078 8.35065L1.99856 9.50363L0.569067 9.90015C0.323865 9.97322 0.125631 10.1611 0.0421942 10.401C-0.0413836 10.6462 0.000381867 10.9175 0.156991 11.1262C1.22128 12.54 2.59336 14.0843 4.73765 14.7886C4.90972 14.8408 5.08714 14.8878 5.26456 14.9295C5.16017 15.0547 5.06103 15.1799 4.97235 15.3103C3.6367 17.1468 3.44367 19.291 3.42806 20.9501C3.42806 21.2058 3.54806 21.451 3.7619 21.5971C3.97059 21.7484 4.2419 21.7797 4.4819 21.6909L5.85917 21.1849L5.8018 22.6509C5.79134 22.9066 5.90619 23.0526 6.11483 23.204C6.31831 23.3605 6.58958 23.4022 6.83478 23.3188C8.41038 22.7918 10.3876 22.051 11.7233 20.2146C11.8328 20.0633 11.9007 19.912 11.9998 19.7502C12.0989 19.912 12.2345 20.0633 12.3441 20.2146C13.6744 22.051 15.657 22.7918 17.2326 23.3188C17.316 23.3501 17.3995 23.3605 17.483 23.3605C17.65 23.3605 17.8117 23.3083 17.9525 23.204C18.1195 23.0787 18.2342 22.9536 18.2604 22.7657C18.2656 22.724 18.2656 22.6823 18.2656 22.6509L18.203 21.1849L19.5855 21.691C19.8255 21.7797 20.0967 21.7484 20.3054 21.5971C20.5141 21.451 20.6393 21.2058 20.6393 20.9502C20.6185 19.2911 20.4306 17.1469 19.095 15.3104C19.001 15.18 18.902 15.0547 18.8029 14.9296C18.9855 14.8879 19.1681 14.8357 19.3454 14.7783C21.5001 14.0792 22.8513 12.4567 23.8478 11.121C23.9994 10.9123 24.0412 10.6463 23.9576 10.401Z" fill="#E380A7"/>
<path d="M23.848 11.121C22.8516 12.4566 21.5003 14.0791 19.3457 14.7782C19.1682 14.8355 18.9856 14.8877 18.8031 14.9295C18.9022 15.0547 19.0013 15.1799 19.0952 15.3103C20.4308 17.1468 20.6186 19.291 20.6395 20.9501C20.6395 21.2057 20.5143 21.4509 20.3056 21.597C20.097 21.7483 19.8257 21.7796 19.5857 21.6909L18.2032 21.1848L18.2658 22.6508C18.2658 22.6822 18.2658 22.7239 18.2606 22.7656C18.2345 22.9535 18.1197 23.0787 17.9527 23.2039C17.8119 23.3082 17.6502 23.3604 17.4832 23.3604C17.3997 23.3604 17.3162 23.3499 17.2328 23.3187C15.6572 22.7918 13.6746 22.0509 12.3443 20.2145C12.2347 20.0632 12.0991 19.9119 12 19.7501V2.2049L12.8504 0.98929C12.9913 0.775401 13.2313 0.644948 13.4869 0.639745C13.7322 0.629292 13.9878 0.759745 14.139 0.968384C15.1617 2.40833 16.2103 4.18217 16.2103 6.43596C16.2103 6.64464 16.1998 6.84813 16.1789 7.06202C16.372 6.97853 16.5702 6.9055 16.7633 6.83763C18.9127 6.14374 20.9214 6.58722 22.6066 7.11934C22.8518 7.19238 23.0447 7.38541 23.1231 7.63586C23.196 7.88106 23.1491 8.14712 22.9874 8.35061L22.0744 9.50359L23.4308 9.9001C23.6761 9.96788 23.8744 10.1558 23.9578 10.401C24.0411 10.6463 23.9994 10.9123 23.848 11.121Z" fill="#D56D95"/>
<path d="M11.9992 15.3051C10.5609 15.3051 9.39062 14.1347 9.39062 12.6965C9.39062 11.2582 10.5609 10.0879 11.9992 10.0879C13.4375 10.0879 14.6078 11.2582 14.6078 12.6965C14.6078 14.1347 13.4375 15.3051 11.9992 15.3051Z" fill="#E4E9EE"/>
<path d="M14.6086 12.6965C14.6086 11.2582 13.4383 10.0879 12 10.0879V15.3051C13.4383 15.3051 14.6086 14.1348 14.6086 12.6965Z" fill="#CED7E2"/>
<path d="M12.0005 11.6531C11.4253 11.6531 10.957 12.1211 10.957 12.6965C10.957 13.2719 11.4253 13.7399 12.0005 13.7399C12.5757 13.7399 13.0439 13.2719 13.0439 12.6965C13.0439 12.1211 12.5757 11.6531 12.0005 11.6531Z" fill="#EFC437"/>
<path d="M13.0434 12.6965C13.0434 12.1211 12.5752 11.6531 12 11.6531V13.7399C12.5752 13.7399 13.0434 13.272 13.0434 12.6965Z" fill="#D7A03C"/>
</g>
<defs>
<clipPath id="clip0_1004_16862">
<rect width="24" height="24" fill="white"/>
</clipPath>
</defs>
</svg>
